<svg id="Livello_1" data-name="Livello 1" xmlns="http://www.w3.org/2000/svg" xmlns:xlink="http://www.w3.org/1999/xlink" viewBox="0 0 839.49 1008.35"><defs><style>.cls-1,.cls-3,.cls-4{fill:none;}.cls-2{fill:url(#Sfumatura_senza_nome_69);}.cls-3{stroke:#000;stroke-width:0.25px;}.cls-3,.cls-4{stroke-miterlimit:10;}.cls-4{stroke:url(#Sfumatura_senza_nome_11);}.cls-5{clip-path:url(#clip-path);}.cls-6{fill:#ed1c24;}.cls-7{fill:#ff0;}.cls-8{fill:#f2a100;}</style><linearGradient id="Sfumatura_senza_nome_69" x1="440.32" y1="465.16" x2="1067.29" y2="1036.22" gradientUnits="userSpaceOnUse"><stop offset="0" stop-color="#e5c500"/><stop offset="0.25" stop-color="#e59e03"/><stop offset="0.51" stop-color="#ff7300"/><stop offset="0.63" stop-color="#f67200"/><stop offset="0.82" stop-color="#dc7100"/><stop offset="0.99" stop-color="#bf6f00"/></linearGradient><linearGradient id="Sfumatura_senza_nome_11" x1="146.7" y1="220.21" x2="380.25" y2="228.26" gradientUnits="userSpaceOnUse"><stop offset="0" stop-color="#ff7300"/><stop offset="0.04" stop-color="#f97c01"/><stop offset="0.09" stop-color="#ea9602"/><stop offset="0.11" stop-color="#e59e03"/><stop offset="0.26" stop-color="#e5c500"/><stop offset="0.75" stop-color="#c17300"/><stop offset="0.76" stop-color="#c17300"/><stop offset="0.99" stop-color="#bf6f00"/></linearGradient><clipPath id="clip-path" transform="translate(-115.92 -8.13)"><rect class="cls-1" x="529.95" y="589.82" width="434.18" height="434.18"/></clipPath></defs><title>ammo </title><path class="cls-2" d="M386.39,58.12c14.85-11.3,30.28-21.7,46.9-30.15C464.6,12,500.93,3.42,535.22,11.11c32.8,7.33,60.72,28.7,84.32,52.63,58.75,59.56,96.3,136.59,128.13,214,27.91,67.83,52.4,137.69,62.62,210.33s5.57,148.59-23.12,216.09c-20.69,48.67-53.31,91.68-91.57,128.16-21.83,20.81-45.83,39.77-73.09,52.63-52.36,24.72-112.61,25.27-170.41,22-64.92-3.7-131.66-12.34-188-44.78-57.48-33.06-99.78-89.19-123-151.3s-28.51-129.88-23-196a618.73,618.73,0,0,1,23.24-123.51c30.09-102.05,86-196.56,161.92-271.18C328,95.79,355,73.33,385.89,57.47Z" transform="translate(-115.92 -8.13)"/><path class="cls-3" d="M141.28,391.32A618.73,618.73,0,0,0,118,514.83c-5.49,66.09-.24,133.88,23,196s65.55,118.24,123,151.3c56.35,32.44,123.09,41.08,188,44.78,57.8,3.31,118,2.76,170.41-22,27.26-12.86,51.26-31.82,73.09-52.63,38.26-36.48,70.88-79.49,91.57-128.16,28.69-67.5,33.36-143.47,23.12-216.09s-34.71-142.5-62.62-210.33c-31.83-77.38-69.38-154.41-128.13-214-23.6-23.93-51.52-45.3-84.32-52.63C500.93,3.42,464.6,12,433.29,28c-16.62,8.45-32.05,18.85-46.9,30.15-13.16,10-25.81,20.69-38.44,31.32" transform="translate(-115.92 -8.13)"/><path class="cls-4" d="M385.89,57.47C355,73.33,328,95.79,303.2,120.14c-75.92,74.62-131.83,169.13-161.92,271.18" transform="translate(-115.92 -8.13)"/><path d="M764.88,318.63c31.51,41,33,96.54,36.38,146,3.6,52.57,5.26,105.85-2.62,158.13-3.82,25.37-9.93,50.45-19.19,74.4-8.49,22-20.15,42.33-32.59,62.28s-25.42,39.43-40.41,57.37-33.18,33-53,45.42c-40.75,25.5-87.92,37.28-135.43,41.4a683.54,683.54,0,0,1-73,1.92c-22.64-.46-45.11-2.1-67.43-6.08-44-7.86-87.06-23.26-124.49-47.91a244.27,244.27,0,0,1-50.26-43.64c-16.18-18.67-28.72-40.09-38.68-62.65C142.1,695.22,132.89,640,127.93,585.85c-4.76-52.07-4.37-106.07,12.32-156.16a229.83,229.83,0,0,1,16-36.93h-4L256.59,540.68c.9,1.28,3.17,1.69,4,0a379,379,0,0,1,67-97.88H324.3L403.7,540c1,1.27,2.81.58,3.61-.47A353.66,353.66,0,0,0,461,437.64L457.65,439,556,495.6a2.41,2.41,0,0,0,2.79-.36,221,221,0,0,0,63.12-79.39c1.26-2.67-2.71-5-4-2.33A218,218,0,0,1,555.53,492l2.78-.36L460,435a2.33,2.33,0,0,0-3.38,1.37,350.3,350.3,0,0,1-53.26,100.77l3.61-.47-79.39-97.17a2.33,2.33,0,0,0-3.26,0,383,383,0,0,0-67.71,98.82h4L156.29,390.44a2.33,2.33,0,0,0-4,0C126.52,438,119.51,492.61,120.91,546a713,713,0,0,0,7.4,82.14c4,27.69,9.5,55.23,17.87,81.94,14.95,47.68,39.16,91.88,77.3,124.83,34.48,29.77,76.61,49.81,120.38,61.7,45.61,12.39,92.6,14.72,139.65,13.52,48-1.23,96.64-7.71,140.92-27.3A249.6,249.6,0,0,0,686,844c17.46-15,31.55-32.84,44.68-51.62C743.53,774,755.58,755,766.54,735.42a303.24,303.24,0,0,0,29-73.59c13.23-52,14.68-106.18,12.48-159.47-1.1-26.51-2.88-53.05-5.41-79.46-2.45-25.59-6.2-51.52-16-75.45a134.85,134.85,0,0,0-17.72-31.15c-1.77-2.31-5.77,0-4,2.33Z" transform="translate(-115.92 -8.13)"/><path d="M150,403.4a757.91,757.91,0,0,1,86.14-175.46c35.63-53.73,78.19-104.78,127.56-146.46C411.26,41.37,473.09,5.8,537.58,14,596,21.34,638,64.8,667.13,112.85c14.65,24.17,26.77,49.77,38.16,75.6,14.94,33.87,29.56,67.89,44.33,101.84l11.51,26.45c1.18,2.71,5.14.37,4-2.32q-23.82-54.74-47.63-109.48c-12-27.48-24-55-38.65-81.16C652.22,76.21,615.26,30.29,561,14.22,498-4.45,433.18,23.59,382.76,60.65,356.25,80.14,332.42,102.94,310,127A763,763,0,0,0,154.07,378.44q-4.44,11.79-8.47,23.74c-1,2.81,3.49,4,4.44,1.22Z" transform="translate(-115.92 -8.13)"/><path d="M163.15,391c28,2.24,56.35,4.31,84.51,4.4,3.7,0,7.53-.32,9.85-3.57,2.78-3.88,2.21-10.23,2.57-14.72L263.62,334l-2.91,2.22q18.84,3.44,37.81,6.06,8.57,1.17,17.17,2.19c5.09.6,11.07,2.14,16.18,1.05,3.75-.8,6.18-3.35,8-6.61,2.8-5.12,5.11-10.57,7.64-15.83l16.76-34.94c1.27-2.66-2.7-5-4-2.33L346,315.51l-7.13,14.85c-2.39,5-4,10.7-10.51,10.81-4.81.09-9.86-1-14.63-1.54q-9-1.08-17.89-2.34-17-2.42-33.92-5.52A2.34,2.34,0,0,0,259,334l-3,36.23-.73,8.82c-.23,2.77,0,6.33-1.06,8.94-2.06,4.91-14.1,2.6-18.41,2.46q-36.39-1.15-72.7-4.07c-3-.24-2.94,4.37,0,4.6Z" transform="translate(-115.92 -8.13)"/><path d="M330,446.36a400.37,400.37,0,0,0,39.35-51.49c1.61-2.5-2.38-4.81-4-2.33a392.43,392.43,0,0,1-38.64,50.57c-2,2.19,1.27,5.46,3.26,3.25Z" transform="translate(-115.92 -8.13)"/><path d="M342.24,339.42l49.86-15.85c2.81-.89,1.61-5.33-1.22-4.43L341,335c-2.82.89-1.62,5.34,1.22,4.44Z" transform="translate(-115.92 -8.13)"/><path d="M229,236.5l19.49,7c5.2,1.85,10.73,4.63,16.34,3,5.76-1.7,11.17-5.64,16.39-8.51l19.65-10.8c2.59-1.43.27-5.4-2.33-4-10.91,6-21.75,13.09-33.15,18.12-5.78,2.56-11.92-.9-17.45-2.88l-17.72-6.32c-2.79-1-4,3.44-1.22,4.43Z" transform="translate(-115.92 -8.13)"/><path d="M336.16,451.71q47.2-14.58,92.8-33.7c2.69-1.13,1.51-5.59-1.22-4.44q-45.56,19.1-92.8,33.7c-2.82.87-1.62,5.32,1.22,4.44Z" transform="translate(-115.92 -8.13)"/><path d="M265,543.66a174.11,174.11,0,0,0,73.63,44.93c2.84.88,4.05-3.57,1.22-4.43a169.38,169.38,0,0,1-71.6-43.75c-2.07-2.13-5.32,1.13-3.25,3.25Z" transform="translate(-115.92 -8.13)"/><path d="M353.23,109.16l4.24,48.18c.25,2.93,4.86,3,4.6,0l-4.24-48.18c-.25-2.93-4.86-3-4.6,0Z" transform="translate(-115.92 -8.13)"/><path d="M202.05,289.21c10.55,5.18,18.13,14.35,27.09,21.71a144,144,0,0,0,28.79,18.35c2.65,1.28,5-2.68,2.32-4a139.15,139.15,0,0,1-30.5-19.86c-8.22-7.1-15.49-15.35-25.38-20.21-2.65-1.3-5,2.67-2.32,4Z" transform="translate(-115.92 -8.13)"/><path d="M394.35,326.1a585,585,0,0,1,36,49.15c1.62,2.47,5.6.16,4-2.32a597.63,597.63,0,0,0-36.75-50.09c-1.88-2.29-5.12,1-3.26,3.26Z" transform="translate(-115.92 -8.13)"/><path d="M374.23,396.2,434.71,377c2.81-.9,1.61-5.34-1.22-4.44L373,391.76c-2.81.89-1.61,5.34,1.23,4.44Z" transform="translate(-115.92 -8.13)"/><path d="M413.21,202.87a139.12,139.12,0,0,1,17.56-47.25c1.52-2.55-2.46-4.87-4-2.33a142.91,142.91,0,0,0-18,48.35c-.51,2.9,3.93,4.14,4.44,1.23Z" transform="translate(-115.92 -8.13)"/><path d="M361.62,165.2a206.73,206.73,0,0,0,45.52,37.47c2.53,1.54,4.85-2.44,2.32-4A202.06,202.06,0,0,1,364.88,162c-2-2.19-5.25,1.07-3.26,3.25Z" transform="translate(-115.92 -8.13)"/><path d="M207,461.29c20.91-6.35,41.76-12.9,62.75-19,20.68-6,41.68-10.95,63.24-12,2.95-.15,3-4.75,0-4.6-21.33,1.07-42.16,5.82-62.64,11.67-21.61,6.17-43.06,12.95-64.57,19.49-2.83.85-1.62,5.3,1.22,4.43Z" transform="translate(-115.92 -8.13)"/><path d="M337.6,423.91c-5.25-2.28-.54-12.82.38-16.63a166.49,166.49,0,0,0,3.23-18,163.64,163.64,0,0,0,0-39.93c-.35-2.9-5-2.94-4.6,0a161.45,161.45,0,0,1-1.33,48.52c-1.2,6.53-3.72,13-4.47,19.55-.47,4.16.27,8.65,4.47,10.48,2.69,1.16,5-2.8,2.33-4Z" transform="translate(-115.92 -8.13)"/><path d="M401.67,318.62l27.52,2.24c7.2.58,16.43,2.91,23.31-.21,5.83-2.65,9.32-9.47,12.83-14.46l7.13-10.12c3.41-4.84,6.48-9.24,12.35-4.24,26.45,22.58,51.19,47.5,74.85,73,2,2.17,5.27-1.09,3.26-3.26q-18.6-20-38.2-39.06-10.14-9.84-20.55-19.4c-6.1-5.6-12.15-12.19-19-16.86-5.36-3.66-10.21-1-13.86,3.6-5.32,6.63-9.76,14-14.78,20.89-3.35,4.59-6.54,6.79-12.36,6.72-4.34-.06-8.71-.66-13-1L401.67,314c-2.95-.24-2.93,4.36,0,4.6Z" transform="translate(-115.92 -8.13)"/><path d="M307.62,236.72A232.5,232.5,0,0,1,360.23,281c2,2.22,5.21-1,3.26-3.26a237.13,237.13,0,0,0-53.55-45c-2.53-1.55-4.84,2.43-2.32,4Z" transform="translate(-115.92 -8.13)"/><path d="M287.27,172.8l27.08,16.31c6.79,4.09,13.17,8.4,21.28,9.1,9.31.81,19,0,28.3-.12l30.85-.38c3,0,3-4.64,0-4.6-18.51.23-37.1,1-55.6.65-9.48-.19-16.34-4.91-24.2-9.64l-25.39-15.3c-2.54-1.53-4.86,2.45-2.32,4Z" transform="translate(-115.92 -8.13)"/><path d="M308.69,237.08a105.15,105.15,0,0,0,55.76-22.44c2.32-1.84-.95-5.08-3.25-3.25a99.65,99.65,0,0,1-52.51,21.09c-2.93.28-3,4.88,0,4.6Z" transform="translate(-115.92 -8.13)"/><path d="M379.66,285.79a110.18,110.18,0,0,0,30.78-30.34c1.67-2.45-2.32-4.76-4-2.32a104.56,104.56,0,0,1-29.13,28.69c-2.47,1.62-.17,5.61,2.32,4Z" transform="translate(-115.92 -8.13)"/><path d="M365.93,289.5l21.32-6.79c2.81-.9,1.61-5.34-1.22-4.44l-21.32,6.79c-2.82.9-1.61,5.34,1.22,4.44Z" transform="translate(-115.92 -8.13)"/><path d="M417.79,253.26a330.92,330.92,0,0,0,48.53-20c2.64-1.34.32-5.31-2.32-4a324.91,324.91,0,0,1-47.43,19.54c-2.81.9-1.61,5.35,1.22,4.44Z" transform="translate(-115.92 -8.13)"/><path d="M136.65,500l78.88-9.44c2.9-.35,2.94-5,0-4.61l-78.88,9.44c-2.91.35-2.94,5,0,4.61Z" transform="translate(-115.92 -8.13)"/><path d="M134.72,579.19,168,582.66l16.64,1.74c2.37.25,5.61.05,7.78,1.1,3.15,1.52,4.11,5.62,5.31,8.73a275.94,275.94,0,0,1,15.61,60.9c.41,2.92,4.84,1.68,4.44-1.22a278.38,278.38,0,0,0-7.23-35.38c-3-10.82-6.09-22.66-11.28-32.66-1.76-3.39-4.47-4.79-8.14-5.37-5.69-.91-11.53-1.23-17.26-1.83l-39.15-4.08c-2.95-.31-2.92,4.3,0,4.6Z" transform="translate(-115.92 -8.13)"/><path d="M207,601.46l76.52-25.25c2.8-.92,1.6-5.36-1.22-4.43L205.75,597c-2.8.92-1.6,5.37,1.22,4.44Z" transform="translate(-115.92 -8.13)"/><path d="M344.67,588.36l34.09,51.54c1.63,2.45,5.62.15,4-2.33L348.65,586c-1.63-2.46-5.62-.16-4,2.32Z" transform="translate(-115.92 -8.13)"/><path d="M358.31,598.87a238.6,238.6,0,0,0,59.59-13.58c2.75-1,1.56-5.46-1.23-4.43a234.81,234.81,0,0,1-58.36,13.41c-2.92.28-2.95,4.89,0,4.6Z" transform="translate(-115.92 -8.13)"/><g class="cls-5"><g class="cls-5"><path class="cls-6" d="M589.38,870.64a1266.16,1266.16,0,0,1-36.33-159.18,444.56,444.56,0,0,1,108.09,20.31c3,1,6.59,1.93,9.24.15,2.32-1.55,3-4.6,3.48-7.35,4.77-28.89,3-58.64,8.92-87.32,1.22-6,3.41-12.62,9-15,4.67-2,10-.21,14.75,1.57l93.66,35.11c4.54,1.7,9.33,3.43,14.12,2.66,3.71-.59,7-2.64,10.17-4.68a589.13,589.13,0,0,0,50-36q4.93,60.66,6.06,121.54a334.66,334.66,0,0,1,72.27,4.78A1270.55,1270.55,0,0,1,886.11,894.1l38.83,30.08c1.38,1.07,2.9,2.4,2.85,4.15s-1.5,2.91-2.84,3.91a636.72,636.72,0,0,1-101.21,62,7.47,7.47,0,0,1-3.86,1.09c-1.86-.15-3.31-1.62-4.6-3a226.38,226.38,0,0,0-58.67-44.64c-3-1.59-6.29-3.16-9.66-2.71s-6.22,2.88-8.8,5.18a763.19,763.19,0,0,1-75.75,59.55c-3.45,2.38-7.39,4.83-11.51,4.13-3.08-.52-5.57-2.71-7.85-4.84a329,329,0,0,1-55.11-67.26c-1.78-2.87-3.57-6-3.54-9.36s1.71-6.23,3.41-9a264.24,264.24,0,0,1,33.88-44.19A118.88,118.88,0,0,0,591,872.42" transform="translate(-115.92 -8.13)"/><path d="M591.83,870q-18.08-60.91-30-123.42-3.39-17.84-6.29-35.76L553.05,714a442.35,442.35,0,0,1,87.19,14.28c7,1.88,13.91,4,20.84,6.14,2.82.86,6,1.55,8.87.52a9.23,9.23,0,0,0,5.43-5.85c1.1-3,1.35-6.35,1.78-9.47q.75-5.37,1.27-10.77c.74-7.43,1.22-14.88,1.67-22.33.89-14.64,1.67-29.34,4.22-43.8.95-5.38,1.73-12.18,5.77-16.26,4.88-4.94,12.32-1.48,17.75.56l86.51,32.43c6.54,2.45,13.48,5.8,20.63,4.6,6.45-1.09,12.18-5.8,17.49-9.32q18.16-12,35.4-25.37,4.25-3.29,8.44-6.64l-4.35-1.8q3.84,47.18,5.38,94.5.43,13.51.68,27a2.58,2.58,0,0,0,2.55,2.54,335.37,335.37,0,0,1,71.59,4.7c-.59-1.05-1.18-2.09-1.78-3.13q-22.25,58.53-50.19,114.69-7.92,15.88-16.28,31.56a2.58,2.58,0,0,0,.4,3.08l23.77,18.41,11.72,9.07c1.59,1.24,3.63,2.41,4.91,4s-1.4,2.95-2.61,3.85Q900,947.67,876.51,962.16q-23.29,14.37-47.75,26.71c-2.09,1.06-4.17,2.16-6.3,3.14s-3.24.68-4.94-1c-3-3.05-5.95-6.15-9.06-9.1a231.91,231.91,0,0,0-19.7-16.69,225.07,225.07,0,0,0-21.82-14.64c-3.59-2.12-7.24-4.27-11-6.06s-8.09-2.91-12.26-1.22c-3.88,1.56-6.91,4.75-10,7.47q-5.22,4.63-10.52,9.15-10.6,9.06-21.55,17.71-11.15,8.83-22.62,17.23-5.62,4.11-11.33,8.13c-3.64,2.57-7.29,5.6-11.36,7.46-4.39,2-7.66.27-11-2.76s-6.51-6.18-9.66-9.37q-9.25-9.35-17.74-19.42T601.76,958q-3.91-5.52-7.6-11.19c-2.26-3.46-5-7-6.49-10.91-1.84-4.7.7-8.62,3.13-12.54s4.79-7.52,7.32-11.19a259.5,259.5,0,0,1,16.4-21.25q4.35-5.08,9-9.93a2.58,2.58,0,0,0-1.13-4.25A124,124,0,0,0,591,869.88c-3.26-.28-3.24,4.81,0,5.09a118.5,118.5,0,0,1,30,6.65c-.37-1.41-.75-2.83-1.12-4.25a267.43,267.43,0,0,0-34.28,44.7c-2.38,3.92-4.36,8.06-3.51,12.75.79,4.41,3.69,8.31,6,12q7.49,11.73,15.93,22.79a326.83,326.83,0,0,0,37.18,41.16c2.94,2.73,6.19,5.4,10.37,5.68,4.77.31,9-2.44,12.73-5q12.13-8.37,23.93-17.22,23.38-17.51,45.41-36.74c3.41-3,6.74-6.75,10.72-9,4.35-2.44,8.64.11,12.56,2.23a224.93,224.93,0,0,1,23,14.23,219.93,219.93,0,0,1,21.41,17.21q5.2,4.73,10.11,9.79c2.7,2.78,5.44,6.39,9.79,5.78,2.1-.3,4-1.46,5.9-2.39q3.51-1.73,7-3.51,6.25-3.2,12.46-6.54,12.74-6.85,25.15-14.29,24.81-14.87,48.22-31.94,2.84-2.07,5.66-4.18c1.65-1.24,3.38-2.46,4.23-4.42,1.9-4.37-2.09-7.32-5.11-9.66L900,901.64l-12.05-9.34c.13,1,.26,2.06.4,3.09q29.76-55.86,53.91-114.45,6.76-16.43,13.07-33a2.55,2.55,0,0,0-1.78-3.13,342.16,342.16,0,0,0-72.94-4.88l2.54,2.55q-.87-47.33-4.05-94.57-.91-13.49-2-27a2.58,2.58,0,0,0-4.34-1.8Q855.77,632.68,837.87,645c-5.79,4-11.6,8.1-17.69,11.61a16.35,16.35,0,0,1-9.27,2.63c-3.47-.2-6.82-1.53-10-2.73q-42.69-15.94-85.33-32c-6.21-2.32-13.17-6-20-5.64-5.89.34-10.28,4.11-12.64,9.35-2.53,5.61-3.39,11.93-4.3,18-1.09,7.19-1.83,14.42-2.39,21.67-1.14,14.61-1.61,29.27-3.19,43.84-.4,3.68-.87,7.35-1.45,11-.37,2.33-.59,6.17-3,7.35s-6.26-.57-8.68-1.33q-5.22-1.65-10.48-3.17A448.47,448.47,0,0,0,564,709.72q-5.44-.47-10.91-.81c-1.81-.11-2.7,1.71-2.46,3.22q10.14,62.73,26.49,124.24,4.68,17.55,9.85,35c.93,3.13,5.84,1.8,4.9-1.36" transform="translate(-115.92 -8.13)"/><path class="cls-7" d="M720,790.93a550.83,550.83,0,0,0,21.5-102.64l34.77,68.93q26.73-27.86,51.89-57.16,6.2,38.33,12.4,76.66c.37,2.29.84,4.77,2.56,6.33a9.88,9.88,0,0,0,4.93,2c18.8,3.62,39.46,2.65,55.31,13.39L820.28,864a11.61,11.61,0,0,0-3.38,3.57c-1.16,2.3-.65,5.06-.12,7.58q9.06,43,15.13,86.53c.46,3.31.37,7.61-2.74,8.83-2.26.88-4.71-.54-6.73-1.88A522.28,522.28,0,0,0,745.09,926c-2.57-1.14-5.22-2.28-8-2.38-3.49-.12-6.8,1.37-10,2.83l-90.44,41.64a5.9,5.9,0,0,1-2.63.75c-3.08-.13-3.87-4.32-3.63-7.4,2.45-30.91,14.68-60.06,24.33-89.54,1-2.95,1.92-6.07,1.35-9.13-.49-2.64-2.07-4.94-3.63-7.13a540.41,540.41,0,0,0-55.1-65.8,738.16,738.16,0,0,0,123.21,3.47" transform="translate(-115.92 -8.13)"/><path d="M722.43,791.6a554.12,554.12,0,0,0,18.51-80Q742.71,700,744,688.29l-4.74,1.28,34.77,68.94a2.57,2.57,0,0,0,4,.51q26.72-27.87,51.89-57.16l-4.25-1.13q5.19,32.09,10.37,64.17c.81,5,1.24,10.16,2.52,15,1.2,4.5,4.35,6.67,8.78,7.55,8.81,1.75,17.81,2.36,26.69,3.7,9.85,1.48,19.62,3.84,28,9.43l-.51-4-52.16,41.18-25.92,20.45c-3.41,2.69-8.32,5.41-9.49,9.92s.89,10.1,1.81,14.6q6.59,32.18,11.51,64.66c.77,5.08,1.74,10.19,2.2,15.3.13,1.38.41,3.82-.64,4.95-1.4,1.49-3.84-.44-5.12-1.27-8.61-5.6-17.24-11.13-26.11-16.31s-17.87-10.1-27-14.75-18.2-9.42-27.67-13c-4.82-1.81-9.36-1.39-14,.56-4.92,2-9.72,4.41-14.55,6.64L684.44,943.3l-29.89,13.76-15.33,7.06c-1,.47-4.26,2.64-5.36,2.06s-1-3.27-.93-4.25c.35-10,2.67-20.26,5.12-30,2.54-10.08,5.72-20,9.05-29.82s6.77-19.42,10-29.2c1.57-4.8,2.55-9.45.3-14.22-2.09-4.44-5.59-8.43-8.49-12.36a546.7,546.7,0,0,0-39.37-47.5q-5.1-5.49-10.35-10.83l-1.8,4.34a741.09,741.09,0,0,0,95.95,4.48q13.63-.26,27.26-1c3.26-.18,3.28-5.27,0-5.09a741.67,741.67,0,0,1-96-.92q-13.6-1-27.17-2.54c-2.29-.26-3.22,2.89-1.8,4.34A540.23,540.23,0,0,1,637,839.08q4.76,6.12,9.32,12.39c1.46,2,2.92,4,4.34,6s2.92,4.22,3,6.78-.86,5.21-1.67,7.68-1.66,5-2.51,7.48c-1.7,5-3.44,10-5.16,15-6.74,19.57-13.17,39.36-15.78,60-.51,4.08-1.52,8.78,0,12.75,1.66,4.25,5.48,4.87,9.35,3.14,10.13-4.54,20.18-9.29,30.27-13.94,20.28-9.34,40.5-18.81,60.84-28a20.49,20.49,0,0,1,6.88-2.14c2.77-.19,5.37.92,7.85,2,4.7,2.07,9.35,4.24,14,6.46q14.06,6.76,27.69,14.34t27.11,16.19q3,1.91,6,3.86c2.15,1.42,4.31,3.15,6.83,3.88a6.9,6.9,0,0,0,8.84-4.9c1.18-4.11-.07-8.75-.66-12.85q-1.18-8.29-2.49-16.55-2.61-16.53-5.65-33c-2-10.78-4.34-21.48-6.37-32.24-.42-2.22-.53-4.31,1.15-6a61.26,61.26,0,0,1,5.89-4.76l13.29-10.49,52.82-41.7,13-10.23c1.37-1.08.7-3.18-.52-4C890,786.47,872,786.09,855.23,783.65c-2.07-.3-4.13-.63-6.18-1s-4.24-.73-5.18-2.85c-.84-1.89-1-4.21-1.28-6.23l-1.35-8.34q-2.49-15.4-5-30.83l-5.66-35c-.3-1.85-3.07-2.49-4.25-1.12q-25.15,29.28-51.89,57.16l4,.52L743.68,687c-1.26-2.48-4.49-1-4.74,1.29a552.73,552.73,0,0,1-21.41,102c-1,3.13,3.93,4.47,4.9,1.35" transform="translate(-115.92 -8.13)"/><path class="cls-8" d="M722.45,867.08q-8.43-13.43-16.87-26.86l28.23,3.08a7.27,7.27,0,0,0,4.27-.41c1.84-1,2.4-3.36,2.78-5.43q4.7-26.13,8.56-52.4c2.81-.17,4.84,2.48,6.71,4.59,5.75,6.52,14.36,9.8,22.91,11.36s17.3,1.62,25.89,2.93a621.73,621.73,0,0,1-36.37,57.62A6.42,6.42,0,0,0,767,865.3a6.35,6.35,0,0,0,1.35,3.13q14.49,21.8,29,43.58c-10.12-3-20.06-6.78-30.5-8.32-22.28-3.28-44.62,3.88-66,10.95q10-16.75,18.58-34.36c1.37-2.83,2.75-5.93,2.11-9" transform="translate(-115.92 -8.13)"/><path d="M724.65,865.8q-8.45-13.42-16.87-26.86c-.73,1.27-1.46,2.55-2.2,3.82l24.91,2.72c3.26.35,7.11,1.27,9.86-1.1,2.51-2.17,2.86-5.67,3.41-8.73q4.44-24.89,8.12-49.91l-2.46,1.87c2,0,3.49,2.23,4.71,3.61a31.77,31.77,0,0,0,5.12,4.64,41.3,41.3,0,0,0,12.58,6c10.51,3.19,21.64,2.89,32.42,4.5l-1.52-3.74q-12.32,22.07-26.35,43.09-3.57,5.34-7.24,10.6c-2,2.85-5.33,6.17-4.57,10a13.87,13.87,0,0,0,2.48,4.81l4,6q3.62,5.45,7.25,10.89l16.83,25.31c1-1.25,1.91-2.5,2.87-3.74-8.08-2.42-16-5.3-24.28-7.15a85.07,85.07,0,0,0-24.39-1.88c-16.92,1.11-33.18,6.37-49.18,11.66q1.44,1.86,2.87,3.74,6.69-11.19,12.73-22.73c2-3.85,4-7.72,5.85-11.63,1.72-3.57,3-7,2.38-11-.51-3.22-5.41-1.85-4.91,1.36.57,3.63-2.11,7.62-3.65,10.71q-2.53,5.11-5.2,10.15-5.52,10.43-11.59,20.56c-1.1,1.84.74,4.44,2.87,3.73,15.54-5.13,31.4-10.39,47.83-11.47a80.66,80.66,0,0,1,23.8,1.87c8,1.86,15.69,4.63,23.52,7,2,.62,4.11-1.87,2.87-3.73l-28-42.17c-1-1.45-2.39-2.82-1.47-4.55a52.1,52.1,0,0,1,3.55-5.09Q777,854,780.33,849q6.69-10,13-20.24,7.14-11.61,13.78-23.52c.72-1.29.17-3.49-1.52-3.74-11-1.63-22.39-1.31-33.07-4.7a33.54,33.54,0,0,1-12.26-6.59c-3.36-3-5.8-7.64-10.85-7.68a2.56,2.56,0,0,0-2.45,1.87q-3.37,22.92-7.38,45.76c-.35,1.93-.69,3.87-1,5.81a11.44,11.44,0,0,1-1,3.84c-.74,1.24-1.82,1.12-3.14,1-1.87-.15-3.74-.41-5.6-.61l-23.25-2.53c-1.93-.22-3.14,2.31-2.19,3.82l16.86,26.87c1.74,2.77,6.14.21,4.4-2.57" transform="translate(-115.92 -8.13)"/></g></g></svg>