<svg xmlns="http://www.w3.org/2000/svg" viewBox="0 0 954.83 938.75"><defs><style>.cls-1{fill:#ed1c24;}.cls-2{fill:#ff0;}.cls-3{fill:#f2a100;}</style></defs><title>bomba</title><g id="Livello_2" data-name="Livello 2"><g id="Livello_1-2" data-name="Livello 1"><path class="cls-1" d="M91.56,594.79A2988.78,2988.78,0,0,1,5.88,219.35a1048.27,1048.27,0,0,1,254.93,47.92c7.18,2.3,15.54,4.54,21.81.34,5.47-3.66,7.12-10.84,8.19-17.33,11.26-68.13,7.16-138.3,21-205.94,2.89-14,8-29.78,21.24-35.39,11-4.68,23.57-.48,34.77,3.71l220.9,82.82c10.7,4,22,8.09,33.29,6.27,8.76-1.41,16.54-6.24,24-11A1392.91,1392.91,0,0,0,764,5.83q11.65,143,14.28,286.63a790.19,790.19,0,0,1,170.46,11.3A2999.22,2999.22,0,0,1,791.4,650.12L883,721.05c3.25,2.52,6.82,5.67,6.72,9.79-.11,3.94-3.55,6.86-6.7,9.22a1503,1503,0,0,1-238.7,146.15c-2.87,1.4-5.92,2.84-9.1,2.57-4.4-.37-7.82-3.84-10.85-7A534.42,534.42,0,0,0,486,776.46c-7.1-3.76-14.84-7.46-22.79-6.41s-14.66,6.8-20.74,12.23A1803.1,1803.1,0,0,1,263.78,922.74c-8.13,5.6-17.42,11.39-27.15,9.74-7.26-1.23-13.13-6.4-18.51-11.43a774.87,774.87,0,0,1-130-158.62c-4.2-6.79-8.42-14.1-8.37-22.08,0-7.67,4-14.69,8-21.23a624.11,624.11,0,0,1,79.9-104.22A280,280,0,0,0,95.44,599"/><path d="M97.35,593.19Q54.71,449.52,26.51,302.09q-8-42.06-14.85-84.33l-5.78,7.59A1045.24,1045.24,0,0,1,211.52,259c16.51,4.44,32.8,9.51,49.14,14.49,6.66,2,14.16,3.65,20.94,1.24,6.43-2.29,10.5-7.59,12.8-13.81,2.59-7,3.18-15,4.2-22.34q1.75-12.66,3-25.4c1.74-17.51,2.86-35.08,3.93-52.65,2.11-34.53,3.93-69.2,10-103.32,2.23-12.67,4.08-28.72,13.6-38.35C340.6,7.24,358.15,15.41,371,20.2L575,96.7c15.41,5.78,31.77,13.68,48.65,10.84,15.2-2.56,28.73-13.68,41.25-22q42.83-28.36,83.49-59.84,10-7.74,19.89-15.66L758,5.83q9,111.26,12.67,222.87,1,31.88,1.61,63.76c.06,3.15,2.71,6.14,6,6a792,792,0,0,1,168.86,11.08L943,302.16Q890.51,440.22,824.6,572.65q-18.68,37.49-38.38,74.44c-1.12,2.11-1.18,5.63.94,7.27l56.05,43.42,27.64,21.4c3.75,2.9,8.56,5.67,11.59,9.37,3.18,3.88-3.31,7-6.16,9.09q-52.15,38.8-107.53,73-54.91,33.9-112.61,63c-4.93,2.49-9.84,5.08-14.86,7.4-5.25,2.42-7.63,1.61-11.65-2.46-7.11-7.2-14-14.52-21.37-21.48a549.78,549.78,0,0,0-46.45-39.37,535.09,535.09,0,0,0-51.46-34.51c-8.49-5-17.08-10.07-26-14.29-9.24-4.38-19.08-6.88-28.93-2.9-9.15,3.7-16.29,11.22-23.55,17.64q-12.31,10.9-24.82,21.58Q382,826.59,356.25,847,330,867.83,302.89,887.63q-13.27,9.72-26.72,19.18c-8.59,6.05-17.2,13.21-26.8,17.61-10.35,4.74-18.06.61-25.85-6.53s-15.34-14.57-22.77-22.08q-21.83-22-41.84-45.81t-38.13-49.23q-9.24-13-18-26.39c-5.31-8.17-11.75-16.59-15.31-25.72-4.31-11.09,1.66-20.33,7.39-29.59q8.3-13.4,17.28-26.38a608.68,608.68,0,0,1,38.66-50.13q10.28-12,21.13-23.41c3.27-3.45,1.6-8.5-2.64-10A292.86,292.86,0,0,0,95.44,593c-7.69-.67-7.65,11.34,0,12a280.22,280.22,0,0,1,70.71,15.7l-2.65-10A629.5,629.5,0,0,0,82.66,716.09c-5.62,9.23-10.28,19-8.29,30.07,1.88,10.39,8.7,19.58,14.26,28.31q17.63,27.66,37.56,53.76a770.87,770.87,0,0,0,87.69,97.07c6.93,6.44,14.61,12.74,24.46,13.39,11.25.75,21.16-5.74,30-11.84q28.63-19.73,56.46-40.6Q380,845,431.9,799.6c8-7,15.9-15.91,25.27-21.16,10.27-5.76,20.39.27,29.63,5.26A532.69,532.69,0,0,1,541,817.26a523.57,523.57,0,0,1,50.51,40.58q12.27,11.17,23.83,23.09c6.37,6.57,12.83,15.07,23.09,13.64,5-.7,9.49-3.44,13.92-5.63q8.26-4.08,16.47-8.28,14.79-7.54,29.4-15.42,30-16.18,59.31-33.71Q816,796.47,871.21,756.2c4.46-3.26,8.92-6.53,13.35-9.85,3.89-2.92,8-5.82,10-10.43,4.48-10.31-4.92-17.26-12-22.78l-58.42-45.25-28.43-22,.94,7.27Q866.8,521.42,923.74,383.22q15.94-38.72,30.82-77.87c1.08-2.83-1.21-6.86-4.19-7.38a806.32,806.32,0,0,0-172-11.51l6,6q-2.05-111.6-9.55-223Q772.63,37.61,770,5.83c-.45-5.47-6.12-7.55-10.25-4.25q-39.93,32-82.16,61C664,71.91,650.28,81.65,635.92,89.93c-6.85,4-13.86,6.64-21.88,6.19-8.18-.46-16.09-3.59-23.69-6.43Q489.69,52.1,389.11,14.25C374.48,8.76,358.06,0,342,1c-13.87.79-24.23,9.69-29.79,22-6,13.25-8,28.14-10.15,42.4-2.56,17-4.3,34-5.64,51.1-2.68,34.45-3.78,69-7.51,103.4-.94,8.68-2.05,17.34-3.43,26-.87,5.48-1.38,14.54-7.17,17.34-5.95,2.87-14.76-1.36-20.46-3.15q-12.32-3.89-24.72-7.46A1057.13,1057.13,0,0,0,31.62,215.26q-12.85-1.11-25.74-1.91c-4.26-.27-6.36,4-5.79,7.6Q24,368.9,62.56,514q11,41.37,23.22,82.42c2.19,7.39,13.78,4.24,11.57-3.19Z"/><path class="cls-2" d="M399.58,406.78a1299.74,1299.74,0,0,0,50.71-242.07l82,162.58q63-65.7,122.38-134.82l29.24,180.81c.88,5.4,2,11.24,6,14.92,3.14,2.84,7.49,3.84,11.64,4.64,44.35,8.52,93.07,6.24,130.44,31.57L636.14,579c-3,2.41-6.21,4.94-8,8.42-2.74,5.42-1.53,11.91-.28,17.86q21.35,101.38,35.68,204.09c1.09,7.8.87,17.94-6.46,20.82-5.33,2.09-11.11-1.26-15.88-4.44A1230.54,1230.54,0,0,0,458.8,725.33c-6.05-2.69-12.3-5.38-18.92-5.61-8.21-.28-16,3.23-23.49,6.67L203.11,824.6c-2,.91-4.05,1.84-6.22,1.75-7.27-.29-9.12-10.18-8.55-17.43C194.12,736,223,667.26,245.72,597.74c2.28-7,4.53-14.32,3.19-21.54-1.16-6.24-4.89-11.65-8.57-16.83A1275,1275,0,0,0,110.4,404.2,1741.13,1741.13,0,0,0,401,412.38"/><path d="M405.37,408.37A1307.05,1307.05,0,0,0,449,219.6q4.2-27.37,7.28-54.89l-11.18,3,82,162.58c1.73,3.43,6.87,3.87,9.42,1.21q63-65.71,122.38-134.82l-10-2.64L673.37,345.4c1.89,11.69,2.91,24,5.94,35.42,2.81,10.62,10.26,15.73,20.69,17.8,20.79,4.14,42,5.57,63,8.72,23.22,3.5,46.27,9.07,66,22.25l-1.22-9.42-123,97.11-61.12,48.24c-8,6.35-19.63,12.75-22.38,23.4-2.81,10.85,2.08,23.81,4.25,34.42q15.54,75.88,27.16,152.51c1.81,12,4.09,24,5.19,36.09.3,3.25,1,9-1.52,11.65-3.31,3.54-9.06-1-12.08-3-20.3-13.2-40.65-26.25-61.56-38.47S540.56,758.32,519,747.36c-21.27-10.81-42.92-22.22-65.27-30.63-11.36-4.28-22.08-3.29-33.14,1.3-11.6,4.81-22.91,10.41-34.32,15.66l-70.49,32.46-70.49,32.46-36.15,16.65c-2.39,1.1-10.06,6.22-12.65,4.85s-2.28-7.7-2.2-10c.83-23.69,6.32-47.79,12.09-70.69,6-23.76,13.48-47.12,21.34-70.33,7.78-23,16-45.8,23.51-68.85,3.72-11.34,6-22.31.72-33.55-4.93-10.47-13.2-19.88-20-29.14a1286.89,1286.89,0,0,0-92.85-112q-12-12.94-24.4-25.54L110.4,410.2a1748.92,1748.92,0,0,0,226.29,10.55q32.16-.58,64.29-2.37c7.68-.43,7.73-12.43,0-12a1750.78,1750.78,0,0,1-226.52-2.19q-32.09-2.4-64.06-6c-5.41-.61-7.59,6.83-4.24,10.24A1281.94,1281.94,0,0,1,204,520.34q11.21,14.45,22,29.24c3.44,4.72,6.9,9.44,10.23,14.24s6.88,9.95,7.14,16c.26,6.21-2,12.28-4,18.09s-3.92,11.78-5.92,17.66c-4,11.78-8.11,23.53-12.17,35.29-15.9,46.16-31.07,92.83-37.21,141.45-1.21,9.62-3.58,20.69,0,30.06,3.9,10,12.92,11.5,22,7.41,23.9-10.71,47.6-21.92,71.39-32.88,47.83-22,95.53-44.35,143.5-66.07,5.12-2.32,10.55-4.67,16.23-5.06,6.53-.45,12.66,2.16,18.51,4.74,11.08,4.88,22.05,10,33,15.25q33.15,15.93,65.29,33.82,32.54,18.1,63.94,38.16,7,4.51,14.06,9.12c5.07,3.34,10.18,7.42,16.1,9.16,9.41,2.76,18.2-2.23,20.87-11.57,2.77-9.7-.16-20.64-1.56-30.31q-2.8-19.54-5.89-39-6.13-39-13.31-77.81c-4.69-25.41-10.24-50.65-15-76-1-5.23-1.24-10.16,2.73-14.17,4.13-4.18,9.26-7.59,13.87-11.23l31.34-24.74,124.59-98.34,30.56-24.13c3.23-2.55,1.65-7.51-1.22-9.42-34.47-23-76.86-23.86-116.5-29.62-4.87-.71-9.73-1.48-14.57-2.41s-10-1.7-12.21-6.71c-2-4.47-2.25-9.94-3-14.7l-3.17-19.65-11.76-72.72-13.35-82.54c-.71-4.37-7.26-5.88-10-2.65Q591.1,257.31,528.06,323.05l9.42,1.21-82-162.58c-3-5.87-10.58-2.29-11.18,3A1301.15,1301.15,0,0,1,393.8,405.18c-2.3,7.39,9.28,10.56,11.57,3.19Z"/><path class="cls-3" d="M405.41,586.4,365.63,523l66.56,7.26c3.42.37,7.08.69,10.09-1,4.34-2.4,5.67-7.91,6.55-12.79Q459.92,454.91,469,393c6.63-.42,11.42,5.84,15.81,10.82,13.56,15.36,33.88,23.11,54,26.78s40.8,3.82,61,6.92a1466.75,1466.75,0,0,1-85.77,135.9c-1.88,2.65-3.86,5.56-3.74,8.81.1,2.71,1.66,5.13,3.16,7.39L582,692.36c-23.85-7.08-47.31-16-71.92-19.63-52.54-7.74-105.25,9.16-155.67,25.83q23.69-39.52,43.82-81c3.24-6.68,6.49-14,5-21.28"/><path d="M410.59,583.37,370.81,520l-5.18,9,58.73,6.4c7.7.84,16.79,3,23.27-2.59,5.93-5.12,6.75-13.37,8-20.59q10.48-58.71,19.16-117.71L469,399c4.79,0,8.22,5.27,11.09,8.52a76.47,76.47,0,0,0,12.08,10.94c8.87,6.52,19.16,11.05,29.66,14.24,24.8,7.54,51,6.83,76.48,10.61l-3.59-8.82q-29,52-62.15,101.64-8.42,12.58-17.08,25c-4.71,6.74-12.55,14.56-10.77,23.51.85,4.28,3.49,7.78,5.86,11.35L520,610l17.09,25.69,39.7,59.68,6.78-8.82c-19.06-5.69-37.84-12.49-57.27-16.87a201,201,0,0,0-57.51-4.42c-39.91,2.62-78.27,15-116,27.5l6.78,8.81q15.76-26.37,30-53.59c4.74-9.08,9.38-18.21,13.81-27.44,4-8.41,7.08-16.46,5.6-25.91-1.2-7.6-12.77-4.37-11.57,3.19,1.34,8.57-5,18-8.62,25.28q-6,12-12.26,23.92-13,24.6-27.33,48.49c-2.6,4.34,1.74,10.48,6.77,8.82,36.64-12.11,74-24.52,112.81-27.07a190.48,190.48,0,0,1,56.13,4.41c18.79,4.39,37,10.93,55.46,16.45,4.84,1.45,9.7-4.42,6.78-8.81L521,589.87c-2.27-3.42-5.64-6.63-3.46-10.72s5.63-8.1,8.37-12q8.13-11.62,16-23.41,15.8-23.57,30.69-47.73,16.86-27.37,32.51-55.48c1.69-3,.39-8.22-3.58-8.82-25.93-3.85-52.81-3.09-78-11.07-10.42-3.31-20.68-8.23-28.91-15.54C486.69,398,480.92,387,469,387c-2.36,0-5.41,1.85-5.79,4.4q-8,54.08-17.42,107.92c-.8,4.57-1.6,9.14-2.43,13.7-.52,2.91-.77,6.5-2.31,9.06-1.76,2.93-4.31,2.64-7.41,2.41-4.41-.34-8.82-1-13.22-1.44l-54.82-6c-4.56-.5-7.42,5.45-5.18,9l39.78,63.36c4.1,6.52,14.48.51,10.36-6.06Z"/></g></g></svg>