<svg xmlns="http://www.w3.org/2000/svg" viewBox="0 0 430.16 332.8"><defs><style>.cls-1{fill:#b52100;}.cls-2{fill:#0085c8;}.cls-3{fill:#fff;}</style></defs><title>pollo</title><g id="Livello_2" data-name="Livello 2"><g id="Livello_1-2" data-name="Livello 1"><path d="M187.32,277.2l-.46-.73v2.07l.46-.74-4-1.08c-.61,10.12-1.34,20.26-1.67,30.4-.08,2.58,3.68,2.46,3.94,0,1.08-10.08,1.58-20.27,2-30.4.11-2.56-3.4-2.7-4.21-.57l-.3.81a2,2,0,0,0,.53,2l.59.63a2,2,0,0,0,3.1-2.39Z" transform="translate(0 -0.3)"/><path d="M177.52,307.56c-7.71,1-15.41,2.13-23.07,3.59-2.06.4-1.61,4,.51,3.71,7.88-1.05,15.69-2.44,23.5-3.91,2.27-.42,1.25-3.69-.94-3.39Z" transform="translate(0 -0.3)"/><path d="M181.78,306.38c-3.34.95-6.38,2.91-9.44,4.54-3.37,1.78-6.71,3.61-10,5.55-2.34,1.39-.28,4.82,2.12,3.62,3.41-1.69,6.77-3.5,10.1-5.35,3-1.68,6.28-3.17,8.91-5.46,1.33-1.16-.09-3.36-1.7-2.9Z" transform="translate(0 -0.3)"/><path d="M181.84,308.39c-2.93,2.26-5.36,5.22-7.91,7.89-2.75,2.87-5.54,5.71-8.18,8.69-1.73,1.94,1,4.71,2.88,2.87,2.86-2.76,5.58-5.66,8.34-8.53,2.55-2.65,5.44-5.21,7.57-8.22,1.09-1.56-1.14-3.9-2.7-2.7Z" transform="translate(0 -0.3)"/><path d="M240.16,277.71c-.53,8.3-.76,16.63-1.24,24.93-.13,2.16,3.08,2.08,3.31,0a158.52,158.52,0,0,0,1-24.93,1.53,1.53,0,0,0-3.06,0Z" transform="translate(0 -0.3)"/><path d="M238.31,303.45c-8.16,4.27-16,9.37-23.83,14.2-1.9,1.18-.18,4.15,1.76,3,7.93-4.67,16.11-9.21,23.7-14.42a1.62,1.62,0,0,0-1.63-2.79Z" transform="translate(0 -0.3)"/><path d="M237.85,307.54c-4.86,5-9.89,9.72-15,14.41-1.57,1.44.73,3.67,2.31,2.31a137.12,137.12,0,0,0,14.69-14.73c1.16-1.36-.71-3.3-2-2Z" transform="translate(0 -0.3)"/><path d="M240.24,306.17a69.68,69.68,0,0,0-7.54,25.27c-.21,2.25,3.23,2.19,3.49,0a69.26,69.26,0,0,1,7-23.56c1-1.94-1.94-3.66-2.94-1.71Z" transform="translate(0 -0.3)"/><path class="cls-1" d="M52.06,38.63A214.31,214.31,0,0,1,102.44,2.07L84.32,19.44A93,93,0,0,1,121.08,9.22a63.42,63.42,0,0,1-9.15,11.25,245,245,0,0,1,35.25-6.25,9,9,0,0,1-5.24,5.47,33.53,33.53,0,0,1,20.74,4c-1.62,5.16-6.86,8.18-11.77,10.46A169.06,169.06,0,0,1,112.7,46.68" transform="translate(0 -0.3)"/><path d="M53.24,39.8A236.19,236.19,0,0,1,103.36,3.63L101.17.79q-9,8.76-18.07,17.42c-1.49,1.41.39,3.59,2.1,2.73a96.13,96.13,0,0,1,35.88-9.83l-1.64-2.84a68.92,68.92,0,0,1-8.8,10.91,1.84,1.84,0,0,0,1.78,3.05,249.85,249.85,0,0,1,34.76-6.31l-1.64-2.15a8.07,8.07,0,0,1-4.45,4.47c-1.47.7-.8,3.32.85,3.14a33.43,33.43,0,0,1,19.88,3.83L161,23.29c-3.09,8-15.15,11.49-22.41,14.18a200,200,0,0,1-26.42,7.43c-2.34.52-1.33,4,1,3.56A161.27,161.27,0,0,0,146.35,38.1c7.12-3,15-6.18,18-13.91a1.72,1.72,0,0,0-.78-1.92A37,37,0,0,0,141.94,18l.85,3.14a11.17,11.17,0,0,0,5.86-6.07c.44-1,0-2.71-1.47-2.56a265.36,265.36,0,0,0-35.73,6.2l1.77,3a71.71,71.71,0,0,0,9.49-11.58,1.91,1.91,0,0,0-1.63-2.85A96.8,96.8,0,0,0,83.45,17.94l2.1,2.73q9-8.72,18.17-17.32c1.54-1.46-.42-3.76-2.19-2.84a205,205,0,0,0-50.64,37c-1.51,1.51.79,3.8,2.35,2.34Z" transform="translate(0 -0.3)"/><path class="cls-2" d="M44.43,72.86A197.39,197.39,0,0,0,1.88,89.51,94,94,0,0,1,35.75,58.57" transform="translate(0 -0.3)"/><path d="M44.05,71.49C29.26,73.86,14.15,81.08,1,87.93l2.51,2.5C12.27,77.5,23.75,68.62,36.75,60.29a2,2,0,0,0-2-3.44C20.56,63.41,8.8,75.75.29,88.58c-1.06,1.61,1,3.32,2.51,2.51A198.27,198.27,0,0,1,24,81.25c6.84-2.68,14-4.41,20.84-7a1.43,1.43,0,0,0-.76-2.75Z" transform="translate(0 -0.3)"/><path class="cls-2" d="M75.88,105.73a16.76,16.76,0,0,1-9.41,13.8,51.68,51.68,0,0,1-1.09-37.72c14.3,12.51,12.14,34.77,11.05,53.74-1.94,33.7,4.41,69.91,27.43,94.6,9.38,10.07,21.09,17.72,33.33,24,31.55,16.22,67.61,23.83,103,20.78,29.26-2.53,57.47-12.17,84.48-23.71,19-8.13,38-17.57,52.15-32.67,9.45-10.12,16.27-22.36,23-34.47l27.79-50c-5.86-.11-11.43,2.65-17.28,3s-12.91-3.5-12.29-9.33c.48-4.47,4.91-9.93,1.19-12.45a145.25,145.25,0,0,1-27.37,19.24A72.88,72.88,0,0,1,383,106.21c-25.6,29.7-63.57,47.91-102.65,51.23s-78.9-7.85-111.69-29.36c-22.86-15-43.32-36.5-48.64-63.31-1.17-5.9-1.66-12.14-4.75-17.3-4.84-8.08-14.79-11.44-24.09-13-10.31-1.74-21.11-2-31,1.39S41.46,46.76,38.37,56.75" transform="translate(0 -0.3)"/><path d="M74.38,105.73a15.75,15.75,0,0,1-8.72,12.41l2.36,1A51.84,51.84,0,0,1,67,82.25L64.22,83C77.09,94.8,76,113.77,75.12,129.78c-.94,16.31-1,32.43,1.91,48.58,2.94,16.39,8.91,32.38,18.88,45.83,10.56,14.24,25.16,24.53,40.79,32.56,33.61,17.27,72.23,24.86,109.83,20.38a237.74,237.74,0,0,0,56.65-14.24c17.18-6.58,34.95-13.47,50.73-23,17.37-10.51,30.8-25.1,41-42.51,12-20.39,23.34-41.26,34.87-61.93a2.66,2.66,0,0,0-2.27-4c-7.41.2-20.06,7.06-25.81-.19-4.25-5.35,5.37-12.3-.67-17.85a2.75,2.75,0,0,0-3.81,0,149.11,149.11,0,0,1-26.84,18.77l4,3.09a74.52,74.52,0,0,1,11-27.69c1.7-2.61-2.28-5.76-4.37-3.37-39,44.65-101.59,60-158.07,44.91-28.13-7.52-55.89-21.9-76.39-42.84-9.67-9.87-17.73-21.59-21.92-34.85-3.81-12.09-3-25.43-14.76-33.15-12.14-8-30.21-8.59-44-5.87C52.81,35,40.67,43.15,36.35,56.19c-.86,2.58,3.16,3.65,4,1.12,5.11-14.7,20.3-22.18,35.16-22.16,12.76,0,33.14,2.61,38.64,16.31,2.56,6.35,2.7,13.48,4.58,20A81.83,81.83,0,0,0,126.17,89c6.33,11.25,15.07,21.09,24.82,29.48,42.49,36.55,104.11,51.69,158.33,36.75,29.1-8,55.83-24.26,75.67-47.08l-4.36-3.36a78.27,78.27,0,0,0-11.46,29,2.77,2.77,0,0,0,4,3.09,155.7,155.7,0,0,0,27.89-19.69h-3.81c2,1.79-2.19,9.36-1.93,12.12a10.74,10.74,0,0,0,5,7.7c8.69,5.81,18,0,27.2-.32l-2.28-4c-9.94,18-19.48,36.09-29.62,53.93-9.19,16.19-19,31.5-34.6,42.24-15,10.35-32.11,18-49.05,24.6-17.62,6.83-35.89,12.71-54.48,16.15a187.61,187.61,0,0,1-111.07-13.88c-16.61-7.52-32.79-17.21-44.54-31.41-10.61-12.84-17.06-28.66-20.65-44.8-4.07-18.29-3.39-36.44-2.57-55,.67-15.48,0-32.76-12.16-44a1.67,1.67,0,0,0-2.75.72A54,54,0,0,0,64.92,120a1.63,1.63,0,0,0,2.36,1,18.91,18.91,0,0,0,10.11-15.18c.21-1.94-2.79-1.9-3,0Z" transform="translate(0 -0.3)"/><path class="cls-2" d="M45.81,75.09a19.36,19.36,0,0,0,.31,12.13" transform="translate(0 -0.3)"/><path d="M44.38,74.69a20.78,20.78,0,0,0,.26,12.93c.66,1.83,3.54,1.1,3-.81a19.7,19.7,0,0,1-.34-11.33,1.49,1.49,0,0,0-2.87-.79Z" transform="translate(0 -0.3)"/><path class="cls-2" d="M46.5,80.88c1.82,6.55,10.39,10.17,16.36,6.91" transform="translate(0 -0.3)"/><path d="M45.21,81.24a13.22,13.22,0,0,0,18.44,7.91c1.82-.94.22-3.57-1.59-2.72a10.61,10.61,0,0,1-14.27-5.9c-.57-1.61-3.08-1-2.58.71Z" transform="translate(0 -0.3)"/><path class="cls-2" d="M55.79,88.4l5.1-4.49" transform="translate(0 -0.3)"/><path d="M56.85,89.46c1.73-1.47,3.41-3,5.06-4.53,1.39-1.29-.63-3.21-2-2.05-1.75,1.45-3.46,2.93-5.15,4.45-1.45,1.31.67,3.39,2.13,2.13Z" transform="translate(0 -0.3)"/><path class="cls-3" d="M68.84,52.71c-3.33-2.84-8.23,5.8-5.6,10.45,2,3.53,6.06,1.5,7.2-2.35C71.27,58,70.59,54.19,68.84,52.71Z" transform="translate(0 -0.3)"/><path d="M69.46,51.66c-2.64-2-5.43.54-6.71,2.85-1.59,2.89-2.27,7-.2,9.87,2.27,3.12,6.2,1.88,8.14-.9C73,60.12,72.9,54.54,70,51.56c-1.46-1.49-3.81.87-2.29,2.29,1.78,1.66,2,4.94,1.2,7.12s-3.69,4-4.89.9a7.62,7.62,0,0,1,.74-5.93c.62-1.19,2-3.31,3.48-2.18C69.48,54.69,70.7,52.58,69.46,51.66Z" transform="translate(0 -0.3)"/><path class="cls-2" d="M250.88,249.72A249.59,249.59,0,0,0,311.23,230l-18.78-2.73L310,214.72l-30-5.61a208.44,208.44,0,0,1,42-21.46L262,172.84c-5.54-1.36-12.09-3.74-13.16-9.35" transform="translate(0 -0.3)"/><path d="M251.25,251.08a247.93,247.93,0,0,0,60.92-19.46c1.37-.64,1.11-3.16-.45-3.39L293,225.44l.46,3.5q8.82-6.27,17.58-12.58c1.19-.86,1.31-3.15-.45-3.47-10-1.85-20-3.68-30-5.57l.44,3.39a208.67,208.67,0,0,1,41.54-21.31c1.59-.59,1.86-3,0-3.51-12.9-3.29-25.83-6.44-38.76-9.64-6.14-1.51-12.27-3.06-18.4-4.6-5.4-1.35-12.79-2.57-14.74-8.67a1.93,1.93,0,0,0-3.72,1c2.55,10.94,19.38,11.93,28.08,14,15.53,3.77,31,7.65,46.57,11.35v-3.51a224.59,224.59,0,0,0-42.44,21.62c-1.21.8-1.23,3.07.44,3.38,10,1.86,20,3.77,29.94,5.66l-.45-3.47q-8.81,6.27-17.6,12.56c-1.15.82-1.35,3.23.46,3.49l18.8,2.67-.45-3.38a265.82,265.82,0,0,1-59.79,20c-1.78.37-1,3,.75,2.71Z" transform="translate(0 -0.3)"/><path class="cls-2" d="M28.31,71.12A82.34,82.34,0,0,0,6.59,85.25" transform="translate(0 -0.3)"/><path d="M28,70A73.27,73.27,0,0,0,5.44,84.09c-1.58,1.41.74,3.7,2.31,2.31A109.18,109.18,0,0,1,28.9,72.13c1.15-.61.36-2.63-.9-2.14Z" transform="translate(0 -0.3)"/><path d="M66.5,60.49c-.08-.17-.09-.2,0-.07l-1.93,1.92a1.74,1.74,0,0,0,.46.13,1.57,1.57,0,0,0,.83-3,5.15,5.15,0,0,0-.87-.17,1.55,1.55,0,0,0-1.51,1.15,1.59,1.59,0,0,0,.72,1.77,2.34,2.34,0,0,1,.39.25,1.44,1.44,0,0,0,1.73-.23,1.47,1.47,0,0,0,.22-1.72Z" transform="translate(0 -0.3)"/><path d="M59.16,52.28c3.51-6.92,10.41-7,16.22-2.56,1.44,1.11,3.4-1.41,2-2.53-3.59-2.8-8.13-4.8-12.76-3.62-3.86,1-7.34,4-7.87,8-.17,1.31,1.9,1.78,2.46.66Z" transform="translate(0 -0.3)"/></g></g></svg>