<svg xmlns="http://www.w3.org/2000/svg" viewBox="0 0 389.69 346.24"><defs><style>.cls-1{fill:#b72700;}.cls-2{fill:#a63500;}.cls-3{fill:#0085c8;}.cls-4{fill:#fff;}</style></defs><title>polo_volo</title><g id="Livello_2" data-name="Livello 2"><g id="Livello_1-2" data-name="Livello 1"><path class="cls-1" d="M62.33,83.36,59.7,87.55a107.07,107.07,0,0,0-6.64,11.62c-5.75,12.3-6.56,27.09-1,39.45,1.49,3.3,4.46,6.87,8,6a7.75,7.75,0,0,0,3.52-2.46,36.67,36.67,0,0,0,7.12-11" transform="translate(0 -0.04)"/><path d="M61.82,83.06C52.2,97.54,44.69,113,48.73,130.82c1.1,4.84,3.59,14.16,9.86,14.63,6.07.45,10.87-9.5,12.76-13.94.37-.86-.87-1.62-1.27-.75a41.92,41.92,0,0,1-5,8.39c-1,1.34-2.5,3.52-4.1,4.24-3.63,1.64-6.12-1.28-7.65-3.9C50,133.77,48.94,126.24,49,119.72c.19-13.91,7-24.53,13.81-36.06.4-.66-.6-1.23-1-.6Z" transform="translate(0 -0.04)"/><path d="M66.14,33.78c5-4.63,12.53-7.26,19.28-5.12,3.39,1.07,8.13,3.92,1.36,9.52-1.4,1.16-3.77,1.62-5.5,1.88-4.15.63-13-.29-12.43-6.75.08-.77-1.25-1-1.36-.18-1.55,11.27,21.93,11.32,24,1.37,1-4.73-4.16-7-7.94-7.54A21.82,21.82,0,0,0,65.39,33c-.5.47.25,1.22.75.76Z" transform="translate(0 -0.04)"/><path d="M67.14,24.84a149.77,149.77,0,0,1,33.13-4.31.7.7,0,0,0,0-1.39,128.49,128.49,0,0,0-33.44,4.59.58.58,0,0,0,.31,1.11Z" transform="translate(0 -0.04)"/><path class="cls-2" d="M85,11.75A64.82,64.82,0,0,1,115.43.62l-6.8,7.8a170.26,170.26,0,0,1,39.14-.85,6.3,6.3,0,0,1-5.68,5.91,44.19,44.19,0,0,1,28.22-1.65l-5.6,6.72a30,30,0,0,1,25.41,17.57,9.88,9.88,0,0,1-8.39-2.84,14.31,14.31,0,0,1,7.32,10.23c.21,1.35.15,2.92-.89,3.81s-2.85.66-4.28.23a47,47,0,0,1-20.55-12.8l3.33,9.49a113.71,113.71,0,0,0-34.42-19.85" transform="translate(0 -0.04)"/><path d="M85.21,12.1a68.39,68.39,0,0,1,18.54-8.67c2.44-.71,5.85-2,8.41-1.84,1.82-.5,2.2-.31,1.16.56L111.61,4.1,108.2,8c-.31.35-.14,1.13.43,1a184.25,184.25,0,0,1,21.51-1.55c3.26,0,6.54,0,9.8.18,1.26.06,4.74-.17,5.87.39,3.36,1.66-1.9,4.44-3.89,4.81l.35,1.25a45.28,45.28,0,0,1,17.18-3.19c1.6,0,8.78.09,9.05,1.11.46,1.73-3.08,4.67-4.24,6.07a.65.65,0,0,0,.45,1.09,29.72,29.72,0,0,1,24.82,17.27l.59-1a10.64,10.64,0,0,1-7.88-2.66l-.87,1.13c2.69,1.62,5.26,4,6.19,7.13q2,3.57-3.49,5.82l-1.55-.5c-1.68-.08-3.65-1.41-5.1-2.12a48.19,48.19,0,0,1-13.57-10,.75.75,0,0,0-1.24.73l3.33,9.49,1.25-.73A112.26,112.26,0,0,0,132.46,23.6c-1-.35-1.4,1.21-.43,1.58a125,125,0,0,1,34.11,19.59c.52.42,1.52,0,1.25-.73q-1.68-4.74-3.35-9.49l-1.24.73A49.94,49.94,0,0,0,176,45.13c2.88,1.46,7.89,4.4,11.19,3.44,7.91-2.3-1.64-13.87-5-15.91-.69-.41-1.51.58-.88,1.13a11.55,11.55,0,0,0,8.9,3,.7.7,0,0,0,.59-1,31.16,31.16,0,0,0-26-17.86l.45,1.09,5.61-6.71a.65.65,0,0,0-.29-1.07,46.3,46.3,0,0,0-28.56,1.64.65.65,0,0,0,.35,1.25,7.1,7.1,0,0,0,6.12-6.36.67.67,0,0,0-.62-.82,176.3,176.3,0,0,0-39.3.9l.6,1L115.84,1c.29-.34.14-1-.41-1A67.13,67.13,0,0,0,84.8,11.39c-.44.3,0,1,.41.71Z" transform="translate(0 -0.04)"/><path d="M12.28,243.69a127.75,127.75,0,0,0,20,26.47c.64.65,1.6-.33,1-1a162,162,0,0,1-19.94-26.1.61.61,0,0,0-1.05.62Z" transform="translate(0 -0.04)"/><path d="M.51,270.88c10.85.37,21.76.79,32.61.64a.68.68,0,0,0,0-1.35c-10.84-.48-21.75-.4-32.61-.35a.53.53,0,0,0,0,1.06Z" transform="translate(0 -0.04)"/><path d="M2.14,292A415.77,415.77,0,0,1,36,267.3c.8-.52.06-1.81-.76-1.29A300.92,300.92,0,0,0,1.32,291.19c-.57.49.25,1.28.82.82Z" transform="translate(0 -0.04)"/><path d="M327.47,315.51c13.13-2.35,26.19-4.73,39.42-6.5,1-.13,1-1.66,0-1.55a316.86,316.86,0,0,0-39.78,6.77c-.84.2-.48,1.43.36,1.28Z" transform="translate(0 -0.04)"/><path d="M327.9,314.2q16.91,6.54,33.71,13.29c.75.3,1.3-1,.56-1.32-11.09-4.88-22.46-9.33-33.93-13.22-.8-.27-1.11,1-.34,1.25Z" transform="translate(0 -0.04)"/><path d="M322.6,316.86c7.92,1.16,13.41,7.43,18.83,12.8S352,340.55,357.29,346c.7.73,1.8-.37,1.11-1.11-6.25-6.72-12.57-13.39-19.24-19.7-4.72-4.46-9.61-9.15-16.38-9.68-.74-.06-.93,1.2-.18,1.31Z" transform="translate(0 -0.04)"/><path class="cls-3" d="M62.63,155.34a241.45,241.45,0,0,0,4.3-42.41c.13-9.68-.41-19.67-4.5-28.46-2.18-4.69-5.34-8.93-7.06-13.82a25.68,25.68,0,0,1,1.38-20,61.47,61.47,0,0,0-36.49-1A48.27,48.27,0,0,1,57,35.05c-5.16-2.11-5.35-10-1.65-14.18s9.55-5.51,15-6.6c12-2.38,24.13-4.54,36.34-4.07S131.28,14,140.87,21.56A61,61,0,0,0,114,58.68M67.46,137c-4.18,32.33-20.91,63.88-14.85,95.9,3.2,16.92,12.55,32,22.52,46C86,294.15,98,309,113.68,319.19c20.5,13.38,45.87,17.88,70.3,16.36s48.16-8.69,71.15-17.09c14.71-5.37,29.46-11.41,41.62-21.27,14.85-12.05,24.86-29,33.16-46.22,2.71-5.61,5.32-11.37,9.38-16.09,4.43-5.12,10.31-8.71,15.85-12.6a148.55,148.55,0,0,0,33.56-32.65l-24.84.66c-2.87.08-6.61-.48-7.16-3.3-.3-1.48.51-2.93,1.3-4.2a133.93,133.93,0,0,1,16-20.85,90.46,90.46,0,0,1-23.58,3.49l19.18-46.83c-50.86,37.44-109,69.14-172,72.92-23.84,1.43-50.1-2.23-66.51-19.58C117.43,157.57,113.37,136.73,112,117a286.38,286.38,0,0,1,2-60m71.84,138.65a815.11,815.11,0,0,0,29.31-79.2l-18.78,12.78c-1.42,1-3.42,1.81-4.36.25-1.36-2.27,1.72-5.8.73-8.37-4.68,6.66-11,11.43-17.82,13.36A91,91,0,0,1,178.84,115c-16.16,23.89-35.89,44-57.74,58.66m-.33,94a251.74,251.74,0,0,0-58.71-.71c-9.84,1-19.81,2.66-29.58,1.08M331.7,314.12q-42.09-20.81-85.36-39.1m-28.23-85.86a221.36,221.36,0,0,0-6.52-114.65A29.83,29.83,0,0,0,229,87a193.52,193.52,0,0,0-.3-36.82c2.05,3.12,4.23,6.37,7.55,8.07s8.14,1.21,10.18-2.06c1.1-1.77,1.19-4,1.18-6a104.23,104.23,0,0,0-2.12-20.73c6.43,19.31,19.11,35.58,30.61,52.2s22.32,34.76,24.1,55.19c.82,9.36-.3,18.84-1.42,28.24" transform="translate(0 -0.04)"/><path d="M63.14,155.48c3.65-17.59,5.76-36.61,4.1-54.56a52.82,52.82,0,0,0-6.62-21.38C55.41,70.2,52.49,61.24,57.35,51a.71.71,0,0,0-.42-1,64.19,64.19,0,0,0-36.86-1l.68,1.16A48.69,48.69,0,0,1,57,35.82a.78.78,0,0,0,.39-1.45c-4.16-2.13-4.68-7.43-2.64-11.26C56.9,19,61.79,17.14,66,16a168.91,168.91,0,0,1,26.22-4.51c16.85-1.69,34.38.22,48.23,10.74V20.86c-13.45,8.55-23.6,22-27.28,37.61a.79.79,0,0,0,1.53.42c4.2-15.23,13.16-28.11,26.56-36.64a.82.82,0,0,0,0-1.39c-18.07-13.69-41.4-12.72-62.62-9C70.76,13.3,59,14,54,21.36,50.8,26,51.33,33,56.57,35.72L57,34.27A49.69,49.69,0,0,0,19.77,49.16a.7.7,0,0,0,.67,1.16,63.3,63.3,0,0,1,19-2.23c2.82.12,15,.41,15.94,3.78.32,1.15-1.57,4.78-1.8,6.26A26.22,26.22,0,0,0,53.54,66c.66,4.63,2.74,8.67,5,12.7,6.3,11.21,7.91,22.44,7.7,35.16a272.62,272.62,0,0,1-4.13,41.3c-.12.66.88,1,1,.28Z" transform="translate(0 -0.04)"/><path d="M66.85,136.81C62,172,42.53,207.19,54.52,243c5.65,16.86,16.3,31.91,27,45.88,10.23,13.28,22,25.67,36.71,34,31.06,17.55,68.5,16.13,102.05,7.58a326,326,0,0,0,53.08-18.3c15.85-7.15,29.36-17,39.87-31a163.39,163.39,0,0,0,14.93-24.55c4.69-9.27,8.4-18.9,16.59-25.74,7.94-6.63,16.88-11.84,24.62-18.76a154.65,154.65,0,0,0,20.11-22,1,1,0,0,0-.83-1.45l-15.29.39c-3.62.09-10.26,1.55-13.56-.31-6.31-3.57,11.82-22.85,14.82-26.1a1,1,0,0,0-1-1.67,96.66,96.66,0,0,1-23.31,3.45l1,1.26q9.6-23.41,19.2-46.82a1,1,0,0,0-1.5-1.15c-39.9,29.22-83.65,54.82-132.12,66.54-22.71,5.5-47.52,8.85-70.69,4.28-11.07-2.18-21.95-6.45-30.56-13.91-9.07-7.84-14.72-18.57-18-30-3.81-13.34-4.8-27.4-5.14-41.21A298.84,298.84,0,0,1,115.1,57c.16-1.23-2-1.54-2.2-.29-3.73,26.42-4.88,54.64.51,80.93,4.53,22,16.47,40.58,37.89,49.15s46.27,7.1,68.73,3.45c25.5-4.14,50.09-12.67,73.38-23.75,27.13-12.91,52.5-29.26,76.66-47.05l-1.49-1.14q-9.57,23.42-19.16,46.83a1,1,0,0,0,1,1.27,98.71,98.71,0,0,0,23.85-3.52l-1-1.67A143.07,143.07,0,0,0,361,176.42c-2,2.89-7,8.11-4.8,12,1.79,3.2,6.55,2.85,9.59,2.78,7.64-.16,15.29-.42,22.93-.64l-.83-1.44c-11.11,14.75-24.5,26-39.48,36.68-6,4.27-11,9.08-14.71,15.53-4.13,7.24-7.33,15-11.4,22.27-8.45,15.08-19.06,28.86-33.73,38.33-15.1,9.75-32.7,15.66-49.69,21.2-33.62,11-70.67,17.34-104.9,5.18-16.77-6-30.79-16.61-42.55-29.82-11.4-12.82-22-27.39-29.84-42.68-9.86-19.25-11.18-39.19-7-60.19,3.89-19.66,10.85-38.59,13.54-58.51.1-.79-1.11-1.14-1.22-.33Z" transform="translate(0 -0.04)"/><path d="M186.27,196a769.13,769.13,0,0,0,29.41-79.32.58.58,0,0,0-.84-.64c-5.2,3.56-10.44,7.08-15.67,10.6-.74.5-2.28,2-3.14,2.12-6,.75-3.1-2-3-3.66s.65-2.41.32-4.08c-.12-.58-.86-.55-1.15-.15-3.14,4.31-9.08,11.49-14.84,12.15-2.42.28-1.72.18-1.12-3.71.23-1.49.49-3,.79-4.47.67-3.25,1.53-6.44,2.51-9.61.25-.8-.85-1.18-1.29-.54-15.54,22.74-34.65,42.89-57.47,58.42-.71.49,0,1.66.68,1.17,23-15.63,42.4-35.91,58-58.88l-1.29-.54a97.14,97.14,0,0,0-3.91,19.69.67.67,0,0,0,.83.63c7.55-2.44,13.51-7.34,18.19-13.67l-1.16-.15c.51,2.64-3.63,12,3.41,9.17,4.78-1.94,9.39-6.33,13.64-9.24,1.69-1.16,5.48-5.42,4.24-1.22-.81,2.77-1.79,5.51-2.7,8.26q-11.28,34.08-25.33,67.14c-.26.61.64,1.15.9.53Z" transform="translate(0 -0.04)"/><path d="M121,267c-14.53-2.43-29.53-2.79-44.22-2.14s-29.51,3.93-44.25,2c-1.26-.17-1.57,2-.3,2.23,14.08,2.15,28.51-1.42,42.59-2.23,15.43-.88,30.64.1,46,1.41.72.06.9-1.16.18-1.28Z" transform="translate(0 -0.04)"/><path d="M332,313.65c-27.74-14.34-56.42-27.88-85.4-39.51-1-.38-1.64,1.24-.7,1.66,28.62,12.78,57.18,25.45,85.54,38.8.63.29,1.19-.62.56-1Z" transform="translate(0 -0.04)"/><path d="M218.68,189.32a223.11,223.11,0,0,0-6.29-115l-1.53.65a32.08,32.08,0,0,0,17.88,12.87.83.83,0,0,0,1-.79,192.76,192.76,0,0,0-.41-36.82l-1.3.35c3.54,5.25,10.07,12.85,17.08,7.91,3.31-2.33,3.18-6.53,3.13-10.15a108.58,108.58,0,0,0-2.1-19l-1.44.4c7.87,23,23.79,41.42,36.65,61.62,6.61,10.37,12.48,21.39,15.62,33.35,3.52,13.44,2.21,26.84.74,40.46-.14,1.29,1.84,1.25,2,0,1.67-12.87,2.75-25.77-.23-38.53-2.65-11.34-7.84-22-13.84-31.88-13.22-21.83-31.06-40.93-39.5-65.42a.75.75,0,0,0-1.44.4c1.3,6.58,2.59,13.78,2.13,20.53-.33,5-2.66,9-8.15,8.11-4.43-.74-7.19-5-9.45-8.47-.34-.54-1.36-.39-1.3.35A216.62,216.62,0,0,1,228.15,87l1-.78a30.21,30.21,0,0,1-16.86-12.15c-.51-.74-1.85-.31-1.53.65,12.33,36.84,14.17,76.2,6.75,114.26-.14.74,1,1.07,1.15.32Z" transform="translate(0 -0.04)"/><path class="cls-4" d="M66.65,29.6a7.67,7.67,0,0,1,13-.77,4.87,4.87,0,0,1,.93,4.09c-.68,2.25-3.38,3.21-5.73,3.23a8.81,8.81,0,0,1-6.49-2.36c-1.62-1.72-2.08-4.64-.58-6.47" transform="translate(0 -0.04)"/><path d="M67.07,29.84a7.39,7.39,0,0,1,8-3.42c3.15.81,7.33,5.22,3.53,8.06-4.26,3.19-14-1-10.28-6.83.46-.73-.65-1.34-1.13-.66-5.25,7.26,8.67,13.5,13.27,7.44,2.41-3.17-.63-7.24-3.63-8.61a8.26,8.26,0,0,0-10.59,3.53.49.49,0,0,0,.84.49Z" transform="translate(0 -0.04)"/><path d="M63,26.19c6.65-4.51,15.07-4.86,21.61-9.54.72-.51,0-1.72-.7-1.2-6.55,4.71-15.38,4.61-21.58,9.88-.47.4.15,1.21.67.86Z" transform="translate(0 -0.04)"/><path d="M23.1,49.65a33.7,33.7,0,0,1,21.9-5c.77.08.77-1.13,0-1.21a34.16,34.16,0,0,0-22.39,5.37c-.53.34-.05,1.17.49.84Z" transform="translate(0 -0.04)"/><path d="M69.81,32.55a3.51,3.51,0,0,1,3.33.23,2.32,2.32,0,0,1,.7,3.19c-1.89,2.46-4.35-1.57-4.28-3.34a.65.65,0,0,0-1.27-.18c-.69,3.18,3.91,7.73,6.51,4.26a3.43,3.43,0,0,0-.46-4.35,4.33,4.33,0,0,0-4.89-.65c-.47.2-.13,1,.36.84Z" transform="translate(0 -0.04)"/><path d="M71.46,33.81l-.33,0c-.75-.08-.75,1.25,0,1.17l.33,0a.55.55,0,0,0,0-1.1Z" transform="translate(0 -0.04)"/></g></g></svg>