<svg xmlns="http://www.w3.org/2000/svg" viewBox="0 0 426.51 345.35"><defs><style>.cls-1{fill:#b52100;}.cls-2{fill:#0085c8;}.cls-3{fill:#fff;}</style></defs><title>pollo_cammina</title><g id="Livello_2" data-name="Livello 2"><g id="Livello_1-2" data-name="Livello 1"><path d="M127.49,318.71c11-13.82,20.91-28.94,30.62-43.68,1.1-1.67-1.1-3.91-2.78-2.78a4.23,4.23,0,0,0-2.21,4c.09,2.53,3.92,2.55,3.94,0l.32-.47L154.61,273c-10.26,14.2-20.93,28.5-30.22,43.35-1.16,1.85,1.68,4.16,3.1,2.38Z" transform="translate(0 -0.17)"/><path d="M96,312c7.56,2.56,15.12,5.07,22.81,7.23,2.36.66,3.28-2.86,1-3.64-7.55-2.58-15.2-4.81-22.87-7-2.2-.62-3.07,2.68-.94,3.4Z" transform="translate(0 -0.17)"/><path d="M124,316.19c-8.53.08-17.7,2.6-26,4.39-2.68.58-1.49,4.44,1.12,4,8.26-1.25,17.53-2.12,25.38-5,1.76-.65,1.61-3.44-.47-3.42Z" transform="translate(0 -0.17)"/><path d="M122.09,319.33c-10,4.13-19.67,10.07-29,15.41-2.29,1.31-.27,4.68,2.06,3.52,9.49-4.76,19.69-9.42,28.51-15.33,1.73-1.16.66-4.51-1.52-3.6Z" transform="translate(0 -0.17)"/><path d="M232.77,281.72c.79,9.47,1.88,18.87,2.51,28.35.14,2.11,3.36,2.15,3.31,0a166,166,0,0,0-2.81-28.75c-.34-1.67-3.15-1.32-3,.4Z" transform="translate(0 -0.17)"/><path d="M234.45,311.46c-10.67,6.45-20.85,13.94-31.1,21-1.82,1.26-.12,4.26,1.76,3,10.36-6.95,21.06-13.68,31-21.26,1.6-1.22.21-3.9-1.63-2.79Z" transform="translate(0 -0.17)"/><path d="M218.05,337.63a193.65,193.65,0,0,0,18.6-19.4c1.33-1.6-.91-3.91-2.31-2.31-5.91,6.75-12,13.35-18.28,19.73-1.28,1.29.66,3.2,2,2Z" transform="translate(0 -0.17)"/><path d="M237.81,313.91a67.85,67.85,0,0,0-6.38,29.92c.07,2.23,3.5,2.25,3.49,0a67.1,67.1,0,0,1,5.82-28.2c.88-2-2-3.71-2.93-1.72Z" transform="translate(0 -0.17)"/><path class="cls-1" d="M55.3,35.11A214,214,0,0,1,107.94,1.88L88.73,18a93,93,0,0,1,37.34-7.82,63.69,63.69,0,0,1-9.85,10.64,244.26,244.26,0,0,1,35.58-4A9,9,0,0,1,146.22,22a33.47,33.47,0,0,1,20.43,5.37c-2,5-7.37,7.72-12.42,9.68a169.37,169.37,0,0,1-38.94,10" transform="translate(0 -0.17)"/><path d="M56.47,36.28A236.73,236.73,0,0,1,108.85,3.44L106.66.6Q97.12,8.76,87.51,16.82c-1.66,1.38.46,3.42,2.1,2.72a96.3,96.3,0,0,1,36.46-7.43l-1.63-2.85a69.86,69.86,0,0,1-9.51,10.31c-1.47,1.31.13,3.35,1.77,3a252.32,252.32,0,0,1,35.1-4L150.33,16a8,8,0,0,1-4.56,4.36c-1.64.65-1.61,3.4.45,3.31a33.47,33.47,0,0,1,19.57,5.16l-.61-2.33c-3.69,8-15,10.43-22.65,12.77a199,199,0,0,1-27.73,6c-2,.31-1.58,3.88.49,3.62a162.21,162.21,0,0,0,32.52-7.65c7.47-2.55,16.75-5.22,20.31-13a1.76,1.76,0,0,0-.61-2.33,37.08,37.08,0,0,0-21.29-5.59l.45,3.31a11.63,11.63,0,0,0,6.6-5.89,1.72,1.72,0,0,0-1.47-2.56,267.87,267.87,0,0,0-36.07,3.91l1.78,3a72.59,72.59,0,0,0,10.19-11c.9-1.18-.32-2.85-1.63-2.84a96.8,96.8,0,0,0-38.21,8.22L90,19.27q9.58-8.11,19.25-16.11c1.72-1.42-.47-3.59-2.19-2.84A205.15,205.15,0,0,0,54.13,33.94c-1.62,1.42.72,3.68,2.34,2.34Z" transform="translate(0 -0.17)"/><path class="cls-2" d="M45.47,68.78A197.41,197.41,0,0,0,1.94,82.64,94.16,94.16,0,0,1,37.73,54" transform="translate(0 -0.17)"/><path d="M45.47,67.36C30.37,68.78,14.79,75,1,81.06l2.22,2.88C13,71.47,25.07,63.23,38.74,55.67c1.92-1.06.61-4.47-1.54-3.64C22.4,57.75,9.82,69.27.35,81.72c-1.24,1.63,1.07,3.16,2.51,2.51A199.25,199.25,0,0,1,24.62,75.8c7-2.22,14.25-3.48,21.23-5.64,1.46-.46,1.29-3-.38-2.8Z" transform="translate(0 -0.17)"/><path class="cls-2" d="M74.74,103.61a16.79,16.79,0,0,1-10.28,13.16A51.66,51.66,0,0,1,65.8,79.06c13.47,13.41,9.88,35.48,7.56,54.35-4.11,33.5-.11,70,21.27,96.16,8.71,10.66,19.9,19.05,31.71,26.12,30.43,18.23,65.93,28.15,101.4,27.38,29.36-.63,58.13-8.42,85.82-18.2,19.49-6.88,39.11-15.08,54.16-29.24,10.08-9.49,17.68-21.26,25.17-32.91l31-48.09c-5.84-.48-11.58,1.91-17.44,1.88s-12.65-4.32-11.66-10.09c.77-4.44,5.55-9.6,2-12.35a145.46,145.46,0,0,1-28.55,17.43,72.77,72.77,0,0,1,13-27.59c-27.47,28-66.54,43.71-105.74,44.5s-78.23-12.93-109.56-36.51C144.07,115.47,125,92.69,121.46,65.58c-.79-6-.87-12.22-3.62-17.57-4.31-8.38-14-12.37-23.2-14.53-10.18-2.39-21-3.36-31-.61S44.2,42.54,40.47,52.31" transform="translate(0 -0.17)"/><path d="M73.29,103.21a16,16,0,0,1-9.64,12.17l2.35,1A51.83,51.83,0,0,1,67.39,79.5l-2.75.72c12.2,12.76,9.69,32,7.71,48-2.06,16.68-3.06,33.26-.89,50,2.13,16.35,7.26,32.39,16.48,46.17,9.73,14.55,23.71,25.51,38.65,34.35,32.58,19.28,70.77,29.08,108.63,26.82a240.8,240.8,0,0,0,57.69-11c17.4-5.48,35.33-11.13,51.51-19.7,18-9.52,32.08-23.35,43.39-40.13,13.06-19.4,25.63-39.19,38.31-58.84a2.66,2.66,0,0,0-2.27-4c-7.13-.27-21.55,6.05-26-2.41-3-5.85,6.45-11.44.74-17.42a2.7,2.7,0,0,0-3.26-.42,152.61,152.61,0,0,1-28.57,17.39l4,3.08A74.44,74.44,0,0,1,383.6,125.3c1.91-2.55-2.18-5.51-4.34-3.34-42.08,42.29-106,53.21-161.52,34.16-27.29-9.36-53.7-25.49-72.61-47.49-9-10.48-16.22-22.74-19.54-36.24-3-12.28-1.32-25.6-12.68-33.95-11.86-8.73-30-10.59-44.15-8.5C55.67,31.88,43.53,39.2,38.45,51.75c-1,2.52,3,3.56,4,1.12,6-14.29,21.86-20.76,36.6-19.71,13,.93,33.19,4.88,37.6,19.36,2,6.39,1.69,13.34,3.12,19.87a82,82,0,0,0,6.3,17.94c5.59,11.63,13.72,22,22.9,31,39.77,39,99.77,57.84,154.46,47a155.07,155.07,0,0,0,79.7-42.41l-4.34-3.34a78.34,78.34,0,0,0-13.27,28.25,2.76,2.76,0,0,0,4,3.08A155.33,155.33,0,0,0,398.64,136h-3.8c1.7,1.78-2.88,8.94-2.85,11.67a10.67,10.67,0,0,0,4.41,8.08c8.29,6.54,18.16,1.22,27.45,1.55l-2.27-3.95c-10.93,17-21.47,34.25-32.56,51.16-10.22,15.59-20.91,30.3-37.07,40.18-15.38,9.39-32.69,15.71-49.76,21.27-18.66,6.07-38.13,11-57.65,13.18a188.35,188.35,0,0,1-108.41-20.82c-16.2-8.54-32-19.26-42.85-34.26-9.59-13.23-15.06-29-17.72-45-3.14-18.8-1.35-37.26.72-56C78,107.42,78.56,90,67,77.9a1.66,1.66,0,0,0-2.74.72,54,54,0,0,0-1.31,38.58,1.64,1.64,0,0,0,2.36,1A18.74,18.74,0,0,0,76.2,104c.33-1.9-2.56-2.72-2.91-.8Z" transform="translate(0 -0.17)"/><path class="cls-2" d="M46.71,71.09a19.41,19.41,0,0,0-.48,12.12" transform="translate(0 -0.17)"/><path d="M45.28,70.69a20.73,20.73,0,0,0-.52,12.93,1.53,1.53,0,0,0,3-.82,19.59,19.59,0,0,1,.44-11.32c.62-1.82-2.23-2.57-2.87-.79Z" transform="translate(0 -0.17)"/><path class="cls-2" d="M47,76.92c1.4,6.65,9.71,10.82,15.88,8" transform="translate(0 -0.17)"/><path d="M45.73,77.27c1.74,7.82,10.72,12.14,18,9,1.62-.71.45-3.53-1.21-2.88a10.63,10.63,0,0,1-14.16-6.79,1.34,1.34,0,0,0-2.59.71Z" transform="translate(0 -0.17)"/><path class="cls-2" d="M55.81,85l5.38-4.15" transform="translate(0 -0.17)"/><path d="M56.57,86.32c1.91-1.44,3.79-2.91,5.64-4.43,1.26-1-.42-3.24-1.75-2.27C58.52,81,56.62,82.46,54.74,84c-1.33,1,.46,3.4,1.83,2.37Z" transform="translate(0 -0.17)"/><path class="cls-3" d="M71.14,50.24c-3.15-3-8.6,5.26-6.27,10.07,1.76,3.65,5.95,1.89,7.34-1.88C73.22,55.66,72.78,51.83,71.14,50.24Z" transform="translate(0 -0.17)"/><path d="M72,49.38c-2.49-2.13-5.27-.31-6.86,2-1.93,2.78-2.94,7-1.1,10,2.07,3.43,6.26,2.3,8.35-.45,2.47-3.26,2.62-8.71-.11-11.86-1.35-1.56-3.72.77-2.28,2.28,1.69,1.78,1.6,5.24.56,7.32s-3.82,3.43-4.81.5a7.56,7.56,0,0,1,1-5.88c.54-.93,2.19-3.34,3.5-2.22S73.19,50.4,72,49.38Z" transform="translate(0 -0.17)"/><path class="cls-2" d="M240.08,258.59a249.87,249.87,0,0,0,61.5-15.76L283,238.89l18.36-11.41L271.84,220a209.62,209.62,0,0,1,43.29-18.71l-59-18.65c-5.44-1.72-11.82-4.52-12.53-10.18" transform="translate(0 -0.17)"/><path d="M240.08,260a247.81,247.81,0,0,0,62-15.39c1.55-.6,2-3.15,0-3.57l-18.56-4,.46,3.49q9.19-5.67,18.36-11.42a1.92,1.92,0,0,0-.45-3.47c-9.85-2.49-19.71-5-29.54-7.49l.44,3.39A208.57,208.57,0,0,1,315.62,203a1.84,1.84,0,0,0,0-3.51c-12.67-4.11-25.37-8.1-38.06-12.12-6-1.91-12.05-3.85-18.08-5.78-5.37-1.72-12.49-3.44-14.05-9.69-.61-2.45-4.12-1.37-3.72,1,1.82,11,18.77,13.11,27.21,15.74,15.25,4.76,30.46,9.64,45.73,14.33v-3.51a224.57,224.57,0,0,0-43.74,18.86,1.88,1.88,0,0,0,.44,3.39c9.85,2.49,19.68,5,29.52,7.57l-.46-3.47q-9.2,5.68-18.37,11.4c-1.31.82-1.22,3.14.46,3.49l18.58,3.88V241a267.45,267.45,0,0,1-61.38,16.2c-1.55.22-1.2,2.94.38,2.76Z" transform="translate(0 -0.17)"/><path class="cls-2" d="M29.5,66A82.16,82.16,0,0,0,6.92,78.7" transform="translate(0 -0.17)"/><path d="M29.19,64.87A73.33,73.33,0,0,0,5.76,77.54c-1.66,1.3.67,3.58,2.32,2.31A109.35,109.35,0,0,1,30.09,67c1.22-.55.36-2.53-.9-2.14Z" transform="translate(0 -0.17)"/><path d="M68.26,57.77c-.09-.16-.1-.19,0-.09l-2.3,1.77a4.5,4.5,0,0,0,.82.32,1.6,1.6,0,0,0,1.93-1.1,1.62,1.62,0,0,0-1.1-1.94,2.15,2.15,0,0,0-.45-.14,1.58,1.58,0,0,0-1.84.91,1.56,1.56,0,0,0,.64,2c-.09-.09-.06-.07.08,0a1.43,1.43,0,0,0,2.24-1.73Z" transform="translate(0 -0.17)"/><path d="M61.55,49.12c3.8-6.43,10.68-6.33,16.06-1.63,1.56,1.36,3.85-.9,2.29-2.28-3.38-3-7.69-5.17-12.33-4.36-3.75.65-7.67,3.33-8.43,7.25a1.33,1.33,0,0,0,2.41,1Z" transform="translate(0 -0.17)"/></g></g></svg>