<svg xmlns="http://www.w3.org/2000/svg" viewBox="0 0 432.95 332.8"><defs><style>.cls-1{fill:#b52100;}.cls-2{fill:#0085c8;}.cls-3{fill:#fff;}.cls-4{fill:none;stroke:#000;stroke-miterlimit:10;stroke-width:4px;}</style></defs><title>pollo_bocca_aperta</title><g id="Livello_2" data-name="Livello 2"><g id="Livello_1-2" data-name="Livello 1"><path d="M190.93,277.2l-.46-.73v2.07l.46-.74-4-1.08c-.61,10.12-1.34,20.26-1.67,30.4-.08,2.58,3.68,2.46,3.94,0,1.09-10.08,1.59-20.27,2-30.4.11-2.56-3.4-2.7-4.2-.57l-.31.81a2,2,0,0,0,.53,2l.59.63a2,2,0,0,0,3.1-2.39Z" transform="translate(-0.82 -0.3)"/><path d="M181.14,307.56c-7.72,1-15.42,2.13-23.08,3.59-2.06.4-1.61,4,.51,3.71,7.88-1.05,15.69-2.44,23.5-3.91,2.27-.42,1.25-3.69-.93-3.39Z" transform="translate(-0.82 -0.3)"/><path d="M185.39,306.38c-3.34.95-6.38,2.91-9.44,4.54-3.37,1.78-6.71,3.61-10,5.55-2.34,1.39-.28,4.82,2.12,3.62,3.41-1.69,6.77-3.5,10.1-5.35,3-1.68,6.29-3.17,8.91-5.46,1.33-1.16-.09-3.36-1.7-2.9Z" transform="translate(-0.82 -0.3)"/><path d="M185.45,308.39c-2.93,2.26-5.36,5.22-7.91,7.89-2.75,2.87-5.54,5.71-8.18,8.69-1.72,1.94,1,4.71,2.88,2.87,2.86-2.76,5.58-5.66,8.34-8.53,2.55-2.65,5.44-5.21,7.57-8.22,1.1-1.56-1.14-3.9-2.7-2.7Z" transform="translate(-0.82 -0.3)"/><path d="M243.77,277.71c-.53,8.3-.76,16.63-1.24,24.93-.13,2.16,3.08,2.08,3.31,0a158.52,158.52,0,0,0,1-24.93,1.53,1.53,0,0,0-3.06,0Z" transform="translate(-0.82 -0.3)"/><path d="M241.92,303.45c-8.16,4.27-16,9.37-23.83,14.2-1.9,1.18-.18,4.15,1.76,3,7.93-4.67,16.11-9.21,23.7-14.42a1.62,1.62,0,0,0-1.63-2.79Z" transform="translate(-0.82 -0.3)"/><path d="M241.46,307.54c-4.86,5-9.89,9.72-15,14.41-1.57,1.44.73,3.67,2.31,2.31a137.12,137.12,0,0,0,14.69-14.73c1.16-1.36-.71-3.3-2-2Z" transform="translate(-0.82 -0.3)"/><path d="M243.85,306.17a69.47,69.47,0,0,0-7.53,25.27c-.22,2.25,3.22,2.19,3.48,0a69.26,69.26,0,0,1,7-23.56c1-1.94-1.93-3.66-2.94-1.71Z" transform="translate(-0.82 -0.3)"/><path class="cls-1" d="M55.68,38.63A214,214,0,0,1,106.05,2.07L87.93,19.44A93,93,0,0,1,124.69,9.22a63.42,63.42,0,0,1-9.15,11.25,245,245,0,0,1,35.25-6.25,9,9,0,0,1-5.24,5.47,33.53,33.53,0,0,1,20.74,4c-1.62,5.16-6.86,8.18-11.77,10.46a169.06,169.06,0,0,1-38.21,12.48" transform="translate(-0.82 -0.3)"/><path d="M56.85,39.8A236.44,236.44,0,0,1,107,3.63L104.78.79q-9,8.76-18.07,17.42c-1.48,1.41.39,3.59,2.1,2.73a96.18,96.18,0,0,1,35.88-9.83l-1.64-2.84a68.92,68.92,0,0,1-8.8,10.91A1.84,1.84,0,0,0,116,22.23a249.85,249.85,0,0,1,34.76-6.31l-1.64-2.15a8.07,8.07,0,0,1-4.45,4.47c-1.47.7-.8,3.32.85,3.14a33.43,33.43,0,0,1,19.88,3.83l-.78-1.92c-3.09,8-15.14,11.49-22.41,14.18a200,200,0,0,1-26.42,7.43c-2.34.52-1.33,4,1,3.56A161.27,161.27,0,0,0,150,38.1c7.12-3,15-6.18,18-13.91a1.71,1.71,0,0,0-.78-1.92A37,37,0,0,0,145.55,18l.86,3.14a11.18,11.18,0,0,0,5.85-6.07c.44-1,0-2.71-1.47-2.56a265.36,265.36,0,0,0-35.73,6.2l1.77,3a71.71,71.71,0,0,0,9.49-11.58,1.9,1.9,0,0,0-1.63-2.85A96.8,96.8,0,0,0,87.06,17.94l2.1,2.73q9-8.72,18.17-17.32c1.54-1.46-.41-3.76-2.19-2.84a205,205,0,0,0-50.64,37c-1.51,1.51.79,3.8,2.35,2.34Z" transform="translate(-0.82 -0.3)"/><path class="cls-2" d="M48,65A418.74,418.74,0,0,0,2.65,72.56c9.07-5.83,21.61-10.69,36.13-14" transform="translate(-0.82 -0.3)"/><path d="M48,63.61c-15.23.2-31,4.09-45.89,7.14L3.6,74.18c11.22-6.78,23.32-9.9,35.71-13.69,2.5-.77,1.43-4.25-1.06-3.85A98.17,98.17,0,0,0,1.71,70.94a1.88,1.88,0,0,0,1.44,3.43c7.32-1.76,14.72-3.21,22.13-4.48,7.67-1.32,15.55-1.84,23.14-3.48,1.58-.34,1.21-2.82-.38-2.8Z" transform="translate(-0.82 -0.3)"/><path class="cls-2" d="M79.5,105.73a16.79,16.79,0,0,1-9.42,13.8A51.68,51.68,0,0,1,69,81.81C83.29,94.32,81.14,116.58,80,135.55c-1.94,33.7,4.41,69.91,27.43,94.6,9.38,10.07,21.09,17.72,33.33,24,31.55,16.22,67.61,23.83,103,20.78,29.26-2.53,57.47-12.17,84.48-23.71,19-8.13,38-17.57,52.15-32.67,9.45-10.12,16.27-22.36,23-34.47l27.79-50c-5.86-.11-11.43,2.65-17.28,3s-12.91-3.5-12.29-9.33c.48-4.47,4.91-9.93,1.19-12.45a145.25,145.25,0,0,1-27.37,19.24,72.88,72.88,0,0,1,11.22-28.37C361,135.91,323.07,154.12,284,157.44s-78.9-7.85-111.69-29.36c-22.85-15-43.32-36.5-48.64-63.31-1.17-5.9-1.65-12.14-4.75-17.3-4.84-8.08-14.79-11.44-24.09-13-10.31-1.74-21.11-2-31,1.39S45.07,46.76,42,56.75" transform="translate(-0.82 -0.3)"/><path d="M78,105.73a15.75,15.75,0,0,1-8.72,12.41l2.36,1a51.84,51.84,0,0,1-1.06-36.85L67.83,83c12.87,11.83,11.82,30.8,10.9,46.81-.94,16.31-1,32.43,1.91,48.58,2.94,16.39,8.91,32.38,18.89,45.83,10.55,14.24,25.16,24.53,40.78,32.56,33.61,17.27,72.23,24.86,109.83,20.38a237.74,237.74,0,0,0,56.65-14.24c17.18-6.58,34.95-13.47,50.73-23,17.37-10.51,30.8-25.1,41.05-42.51,12-20.39,23.35-41.26,34.87-61.93a2.66,2.66,0,0,0-2.27-4c-7.41.2-20.06,7.06-25.81-.19-4.25-5.35,5.37-12.3-.67-17.85a2.75,2.75,0,0,0-3.81,0A149.11,149.11,0,0,1,374,132.21l4,3.09a74.52,74.52,0,0,1,11-27.69c1.7-2.61-2.27-5.76-4.36-3.37-39,44.65-101.6,60-158.08,44.91-28.13-7.52-55.89-21.9-76.39-42.84-9.67-9.87-17.73-21.59-21.91-34.85-3.82-12.09-3-25.43-14.77-33.15-12.14-8-30.21-8.59-44-5.87C56.42,35,44.28,43.15,40,56.19c-.85,2.58,3.16,3.65,4,1.12,5.11-14.7,20.3-22.18,35.16-22.16,12.76,0,33.14,2.61,38.64,16.31,2.56,6.35,2.7,13.48,4.58,20A81.83,81.83,0,0,0,129.78,89c6.33,11.25,15.07,21.09,24.82,29.48,42.49,36.55,104.11,51.69,158.33,36.75,29.1-8,55.83-24.26,75.67-47.08l-4.36-3.36a78.27,78.27,0,0,0-11.46,29,2.77,2.77,0,0,0,4,3.09,155.7,155.7,0,0,0,27.89-19.69h-3.81c1.95,1.79-2.19,9.36-1.93,12.12a10.74,10.74,0,0,0,5,7.7c8.69,5.81,18,0,27.2-.32l-2.28-4c-9.94,18-19.48,36.09-29.62,53.93-9.19,16.19-19,31.5-34.6,42.24-15,10.35-32.11,18-49.05,24.6-17.62,6.83-35.89,12.71-54.48,16.15a187.61,187.61,0,0,1-111.07-13.88c-16.61-7.52-32.79-17.21-44.54-31.41-10.61-12.84-17.06-28.66-20.65-44.8-4.07-18.29-3.38-36.44-2.57-55,.67-15.48.06-32.76-12.16-44a1.67,1.67,0,0,0-2.75.72A54,54,0,0,0,68.53,120a1.63,1.63,0,0,0,2.36,1A18.94,18.94,0,0,0,81,105.73c.21-1.94-2.8-1.9-3,0Z" transform="translate(-0.82 -0.3)"/><path class="cls-2" d="M49.42,75.09a19.36,19.36,0,0,0,.31,12.13" transform="translate(-0.82 -0.3)"/><path d="M48,74.69a20.78,20.78,0,0,0,.26,12.93c.67,1.83,3.54,1.1,3-.81a19.7,19.7,0,0,1-.34-11.33A1.49,1.49,0,0,0,48,74.69Z" transform="translate(-0.82 -0.3)"/><path class="cls-2" d="M50.11,80.88c1.82,6.55,10.39,10.17,16.36,6.91" transform="translate(-0.82 -0.3)"/><path d="M48.82,81.24a13.22,13.22,0,0,0,18.44,7.91c1.82-.94.22-3.57-1.59-2.72a10.61,10.61,0,0,1-14.27-5.9c-.57-1.61-3.08-1-2.58.71Z" transform="translate(-0.82 -0.3)"/><path class="cls-2" d="M59.4,88.4l5.1-4.49" transform="translate(-0.82 -0.3)"/><path d="M60.46,89.46c1.73-1.47,3.41-3,5.06-4.53,1.39-1.29-.63-3.21-2-2.05-1.75,1.45-3.46,2.93-5.15,4.45-1.45,1.31.67,3.39,2.13,2.13Z" transform="translate(-0.82 -0.3)"/><path class="cls-3" d="M72.45,52.71c-3.33-2.84-8.23,5.8-5.6,10.45,2,3.53,6.06,1.5,7.2-2.35C74.88,58,74.2,54.19,72.45,52.71Z" transform="translate(-0.82 -0.3)"/><path d="M73.07,51.66c-2.64-2-5.43.54-6.71,2.85-1.59,2.89-2.26,7-.2,9.87,2.27,3.12,6.2,1.88,8.14-.9,2.33-3.36,2.21-8.94-.7-11.92-1.46-1.49-3.81.87-2.29,2.29,1.78,1.66,2,4.94,1.2,7.12s-3.69,4-4.89.9a7.62,7.62,0,0,1,.74-5.93c.62-1.19,2-3.31,3.48-2.18C73.1,54.69,74.31,52.58,73.07,51.66Z" transform="translate(-0.82 -0.3)"/><path class="cls-2" d="M254.49,249.72A249.44,249.44,0,0,0,314.84,230l-18.78-2.73,17.59-12.57-30-5.61a208.44,208.44,0,0,1,42-21.46l-60.12-14.81c-5.53-1.36-12.09-3.74-13.16-9.35" transform="translate(-0.82 -0.3)"/><path d="M254.86,251.08a247.93,247.93,0,0,0,60.92-19.46c1.37-.64,1.11-3.16-.45-3.39l-18.77-2.79.46,3.5q8.82-6.27,17.58-12.58c1.19-.86,1.31-3.15-.45-3.47-10-1.85-20-3.68-30-5.57l.44,3.39a208.67,208.67,0,0,1,41.54-21.31c1.59-.59,1.86-3,0-3.51-12.9-3.29-25.83-6.44-38.76-9.64-6.14-1.51-12.27-3.06-18.4-4.6-5.4-1.35-12.79-2.57-14.74-8.67a1.93,1.93,0,0,0-3.72,1c2.55,10.94,19.38,11.93,28.08,14,15.53,3.77,31,7.65,46.57,11.35v-3.51a224.59,224.59,0,0,0-42.44,21.62c-1.21.8-1.23,3.07.44,3.38,10,1.86,20,3.77,29.94,5.66l-.45-3.47q-8.81,6.27-17.6,12.56c-1.15.82-1.34,3.23.46,3.49l18.8,2.67-.44-3.38a266.15,266.15,0,0,1-59.79,20c-1.79.37-1,3,.74,2.71Z" transform="translate(-0.82 -0.3)"/><path class="cls-2" d="M48,65A134.09,134.09,0,0,0,12.87,93.32" transform="translate(-0.82 -0.3)"/><path d="M47.44,64C33.81,71,22,80.82,11.71,92.16c-1.4,1.56.9,3.88,2.32,2.31a155.28,155.28,0,0,1,34.6-28.42,1.18,1.18,0,0,0-1.19-2Z" transform="translate(-0.82 -0.3)"/><path d="M70.11,60.49c-.08-.17-.09-.2,0-.07l-1.93,1.92a2,2,0,0,0,.46.13,1.57,1.57,0,1,0,.83-3,5.15,5.15,0,0,0-.87-.17,1.55,1.55,0,0,0-1.51,1.15,1.59,1.59,0,0,0,.72,1.77,2.34,2.34,0,0,1,.39.25,1.44,1.44,0,0,0,1.73-.23,1.47,1.47,0,0,0,.22-1.72Z" transform="translate(-0.82 -0.3)"/><path d="M62.78,52.28c3.5-6.92,10.41-7,16.21-2.56,1.44,1.11,3.4-1.41,2-2.53-3.6-2.8-8.14-4.8-12.77-3.62-3.86,1-7.34,4-7.87,8-.17,1.31,1.9,1.78,2.47.66Z" transform="translate(-0.82 -0.3)"/><line class="cls-4" x1="12.05" y1="93.02" x2="48.6" y2="75.5"/><path class="cls-2" d="M36.38,79.84c4.72-3.34,9.35-7.27,14.48-10,3-1.58.35-6.18-2.69-4.59C43,68,38.41,71.9,33.69,75.25c-2.77,2-.11,6.58,2.69,4.59Z" transform="translate(-0.82 -0.3)"/><path class="cls-2" d="M37.68,79a148.65,148.65,0,0,1,14.48-6.61l-3.37-2.57c-.3,2.3,1.27,3,1.85,4.9s-.62,3.15.25,5c1.84,3.85,8.47,5.07,12,6.52V81.08a8.45,8.45,0,0,0-2.72,1.22,2.68,2.68,0,0,0,2.05,4.87l1.39-.24c3-.51,2.25-5.29-.71-5.23a22.06,22.06,0,0,0-3.8.39l3.28,3.27a11.41,11.41,0,0,0-1.24-8.55c-2.24-3.59-1.74-7.27-3.48-11.08a13.74,13.74,0,0,0-16-7.75,2.69,2.69,0,0,0-1.17,4.45c2.82,2.95,5.53.54,8.62,1.94l-.54-4.18a6.24,6.24,0,0,0-2.47.32,3,3,0,0,0-1.65,2.33,2.82,2.82,0,0,0,1.23,3c.56.4,1.35.54,1.88.93l-1.22-3-.09.54c-.55,3.36,4.58,4.8,5.13,1.42l.09-.54a2.84,2.84,0,0,0-1.22-3c-.6-.44-1.31-.53-1.89-.93l1.23,3c-1.32.79-1.46,1.14-.44,1a3.56,3.56,0,0,0,1.3-.06A6.08,6.08,0,0,0,52.35,64a2.67,2.67,0,0,0-.54-4.18,8.7,8.7,0,0,0-3.33-1c-1.31-.1-3.18.92-4.22-.15l-1.17,4.45c7.14-1.68,10.15,4.43,10.64,10.38C54,77.39,58,80.05,57.23,84a2.71,2.71,0,0,0,3.28,3.27l2.38-.2-.71-5.23L60.79,82l2.05,4.87,1.46-.69c2.71-.81,2.32-4.18,0-5.13-2-.83-4-1.63-6-2.47-2.42-1-1.62-.62-2.06-2.62a20.61,20.61,0,0,0-.2-2.4c-.36-1.19-2.09-2.51-1.92-3.78.22-1.62-1.89-3.14-3.37-2.56A157.19,157.19,0,0,0,35,74.4C32,76,34.64,80.58,37.68,79Z" transform="translate(-0.82 -0.3)"/><path class="cls-2" d="M73.79,91.75a25.22,25.22,0,0,1-.13-4l-5,1.34c1.91,4.26,5,9.06,4.73,13.85h5.33v-.7c0-3.43-5.38-3.44-5.33,0v.7c.06,3.46,5.12,3.4,5.33,0,.37-5.81-3.15-11.39-5.46-16.53-1.16-2.58-4.86-1.07-5,1.34a27.87,27.87,0,0,0,.13,4c.36,3.37,5.69,3.4,5.33,0Z" transform="translate(-0.82 -0.3)"/><path class="cls-2" d="M25.17,87.46c3.92-2.41,7.72-5,11.74-7.29a44.48,44.48,0,0,1,6.59-3.1c1.21-.44,5.24-2.06,6.3-1.38l-1.32-2.3c.1,2.41-1,3.58.26,6s4,3.58,6.49,4.52c3.21,1.22,4.59-3.93,1.42-5.13C51.89,77,55.42,74.29,53,71.51c-1.84-2.13-5.69-1-7.92-.47-8.37,2-15.43,7.39-22.63,11.82-2.91,1.79-.24,6.4,2.69,4.6Z" transform="translate(-0.82 -0.3)"/><path class="cls-2" d="M71,97.26c3.42,0,3.43-5.33,0-5.33s-3.43,5.33,0,5.33Z" transform="translate(-0.82 -0.3)"/><path class="cls-2" d="M98.12,81.61c3.42,0,3.43-5.32,0-5.32s-3.44,5.32,0,5.32Z" transform="translate(-0.82 -0.3)"/><path class="cls-2" d="M90.22,69.38a42.55,42.55,0,0,0,5,17.91c1.62,3,6.22.34,4.6-2.68a36.17,36.17,0,0,1-4.27-15.23C95.36,66,90,66,90.22,69.38Z" transform="translate(-0.82 -0.3)"/></g></g></svg>