<?xml version="1.0" encoding="utf-8"?>
<!-- Generator: Adobe Illustrator 23.0.1, SVG Export Plug-In . SVG Version: 6.00 Build 0)  -->
<svg version="1.1" id="Livello_1" xmlns="http://www.w3.org/2000/svg" xmlns:xlink="http://www.w3.org/1999/xlink" x="0px" y="0px"
	 viewBox="0 0 155 230" style="enable-background:new 0 0 155 230;" xml:space="preserve">
<style type="text/css">
	.st0{fill:#9B9B9B;stroke:#000000;stroke-width:1.5;}
	.st1{fill:#FFA20A;}
	.st2{fill:#9B9B9B;}
	.st3{fill:none;stroke:#000000;stroke-width:1.5;}
</style>
<g>
	<title>Layer 1</title>
	<line id="svg_1" class="st0" x1="74" y1="228.4" x2="92" y2="163.4"/>
	<line id="svg_2" class="st0" x1="120" y1="229.4" x2="108" y2="165.3"/>
	<ellipse id="svg_3" class="st0" cx="105" cy="114.9" rx="46" ry="50.5"/>
	<g id="XMLID_1_">
		<g>
			<path class="st1" d="M65.9,52.4L2,59.4l59.9-33.8h0C61.3,28.2,61,31,61,33.9C61,40.8,62.8,47.2,65.9,52.4z"/>
			<path class="st2" d="M88.5,1.4c15.2,0,27.5,14.6,27.5,32.5s-12.3,32.5-27.5,32.5c-9.4,0-17.7-5.5-22.6-14
				C62.8,47.2,61,40.8,61,33.9c0-2.9,0.3-5.7,0.9-8.3C65,11.7,75.7,1.4,88.5,1.4z"/>
		</g>
		<g>
			<path class="st3" d="M61.9,25.6C65,11.7,75.7,1.4,88.5,1.4c15.2,0,27.5,14.6,27.5,32.5s-12.3,32.5-27.5,32.5
				c-9.4,0-17.7-5.5-22.6-14C62.8,47.2,61,40.8,61,33.9C61,31,61.3,28.2,61.9,25.6z"/>
			<line class="st3" x1="2" y1="59.4" x2="61.9" y2="25.6"/>
			<line class="st3" x1="65.9" y1="52.4" x2="2" y2="59.4"/>
		</g>
	</g>
</g>
</svg>
