<?xml version="1.0" encoding="utf-8"?>
<!-- Generator: Adobe Illustrator 23.0.1, SVG Export Plug-In . SVG Version: 6.00 Build 0)  -->
<svg version="1.1" id="Livello_1" xmlns="http://www.w3.org/2000/svg" xmlns:xlink="http://www.w3.org/1999/xlink" x="0px" y="0px"
	 viewBox="0 0 155 230" style="enable-background:new 0 0 155 230;" xml:space="preserve">
<style type="text/css">
	.st0{fill:#FFA20A;}
	.st1{fill:#9B9B9B;}
	.st2{fill:none;stroke:#000000;stroke-width:1.5;}
</style>
<g>
	<title>Layer 1</title>
	<g id="XMLID_1_">
		<g>
			<g id="XMLID_2_">
				<g>
					<path class="st0" d="M61,33.9c0,6.9,1.8,13.3,4.9,18.5l-59,12l55-38.8C61.3,28.2,61,31,61,33.9z"/>
					<path class="st1" d="M105,64.4c25.4,0,46,22.6,46,50.5c0,26.8-19,48.7-43,50.4c-1,0.1-2,0.1-3,0.1c-4.3,0-8.4-0.6-12.4-1.9
						C73.2,157.6,59,138.1,59,114.9C59,87,79.6,64.4,105,64.4z"/>
					<path class="st1" d="M88.5,1.4C103.7,1.4,116,16,116,33.9s-12.3,32.5-27.5,32.5c-9.4,0-17.7-5.5-22.6-14
						C62.8,47.2,61,40.8,61,33.9c0-2.9,0.3-5.7,0.9-8.3C65,11.7,75.7,1.4,88.5,1.4z"/>
				</g>
				<g>
					<polyline class="st2" points="115.4,228.8 101.5,189.4 92.5,163.9 					"/>
					<polyline class="st2" points="91.3,227.3 101.5,189.4 108,165.3 					"/>
					<path class="st2" d="M92.6,163.5C73.2,157.6,59,138.1,59,114.9c0-27.9,20.6-50.5,46-50.5s46,22.6,46,50.5
						c0,26.8-19,48.7-43,50.4c-1,0.1-2,0.1-3,0.1C100.7,165.4,96.6,164.8,92.6,163.5z"/>
					<path class="st2" d="M61.9,25.6C65,11.7,75.7,1.4,88.5,1.4C103.7,1.4,116,16,116,33.9s-12.3,32.5-27.5,32.5
						c-9.4,0-17.7-5.5-22.6-14C62.8,47.2,61,40.8,61,33.9C61,31,61.3,28.2,61.9,25.6z"/>
					<line class="st2" x1="6.9" y1="64.4" x2="61.9" y2="25.6"/>
					<line class="st2" x1="65.9" y1="52.4" x2="6.9" y2="64.4"/>
				</g>
			</g>
		</g>
	</g>
</g>
</svg>
